<svg xmlns="http://www.w3.org/2000/svg" viewBox="0 0 471.18 439.91"><defs><style>.cls-1{fill:#f0f0f0;}.cls-2{fill:#e0e0e0;}.cls-3{fill:#27debf;}.cls-4{fill:#e8505b;}.cls-5{fill:#fff;}.cls-6{fill:#455a64;}.cls-7{fill:#263238;}.cls-8{fill:#37474f;}.cls-9{fill:#fafafa;}.cls-10{opacity:0.2;}.cls-11{fill:#e5919a;}.cls-12{opacity:0.6;}.cls-13{fill:#e07784;}.cls-14{fill:#ffa8a7;}.cls-15{opacity:0.26;}.cls-16{fill:#b16668;}.cls-17{fill:#f28f8f;}.cls-18{fill:#b8c1bf;stroke:#000;stroke-miterlimit:10;stroke-width:0.5px;}</style></defs><title>forgotPassword</title><g id="Layer_2" data-name="Layer 2"><g id="Floor"><path id="Floor-2" data-name="Floor" class="cls-1" d="M402.18,207.71c92,53.12,92,139.24,0,192.36S161,453.19,69,400.07s-92-139.24,0-192.36S310.17,154.59,402.18,207.71Z"/></g><g id="Shadow"><path id="Shadow-2" data-name="Shadow" class="cls-2" d="M244.28,326.9c31.73,18.32,31.73,48,0,66.33s-83.17,18.32-114.89,0-31.73-48,0-66.33S212.56,308.58,244.28,326.9Z"/></g><g id="Plants"><path id="_Path_" data-name="&lt;Path&gt;" class="cls-3" d="M417.87,301.38l-9.53-5.5s-2.33-20.4-.78-36.2c2.18-22.2,16.52-48.92,33.63-42.64s-7.84,28.88-13.4,47.72S417.87,301.38,417.87,301.38Z"/><path id="_Path_2" data-name="&lt;Path&gt;" class="cls-4" d="M417.87,301.38l-9.53-5.5s-2.33-20.4-.78-36.2c2.18-22.2,16.52-48.92,33.63-42.64s-7.84,28.88-13.4,47.72S417.87,301.38,417.87,301.38Z"/><path id="_Path_3" data-name="&lt;Path&gt;" class="cls-5" d="M412.86,299.07h0a.58.58,0,0,0,.56-.6c-1.67-49.33,22.88-74.15,23.13-74.39a.58.58,0,1,0-.81-.82c-.25.25-25.17,25.42-23.48,75.25A.58.58,0,0,0,412.86,299.07Z"/><path id="_Path_4" data-name="&lt;Path&gt;" class="cls-4" d="M423.86,304.81l-6.78-3.91s-1.15-14,5.71-31c6-14.81,20.8-27.09,28.26-24.51s7.27,7.87,3.64,13.42S428.93,277.57,423.86,304.81Z"/><path id="_Path_5" data-name="&lt;Path&gt;" class="cls-5" d="M420.28,303.33h0a.58.58,0,0,0,.57-.58c-.13-31.19,29.15-52.27,29.45-52.48a.58.58,0,1,0-.67-.94c-.3.21-30.07,21.64-29.94,53.43A.58.58,0,0,0,420.28,303.33Z"/><g id="_Group_" data-name="&lt;Group&gt;"><path id="_Path_6" data-name="&lt;Path&gt;" class="cls-3" d="M65.25,289.13l8.8-5.94s3.87-23,.27-43.29c-5.06-28.46-24.69-37.93-31.69-35s-8.5,11.46,4.57,27.71C54.91,242.24,65,262.63,65.25,289.13Z"/></g><g id="_Group_2" data-name="&lt;Group&gt;"><path id="_Path_7" data-name="&lt;Path&gt;" class="cls-4" d="M65.25,289.13l8.8-5.94s3.87-23,.27-43.29c-5.06-28.46-24.69-37.93-31.69-35s-8.5,11.46,4.57,27.71C54.91,242.24,65,262.63,65.25,289.13Z"/></g><g id="_Group_3" data-name="&lt;Group&gt;"><path id="_Path_8" data-name="&lt;Path&gt;" class="cls-5" d="M68.27,277.73h-.09a.64.64,0,0,1-.56-.71c3.18-26.8-8.14-55.87-20.44-67.44a.64.64,0,1,1,.87-.93C60.59,220.43,72.11,250,68.89,277.16A.64.64,0,0,1,68.27,277.73Z"/></g><g id="_Group_4" data-name="&lt;Group&gt;"><path id="_Path_9" data-name="&lt;Path&gt;" class="cls-4" d="M42.21,304.67c-1.4.84-5.48-2.19-6.61-2.92A13.48,13.48,0,0,1,31,296.69a12.63,12.63,0,0,1-1.27-7.56,29.9,29.9,0,0,1,.88-4.05l1-3.94a9.91,9.91,0,0,0,.5-4c-.39-2.67-2.81-4.5-5-6.08-2.42-1.74-5-4.06-5-7.28a11.35,11.35,0,0,1,2.71-6.8c1.5-2,3.3-3.74,4.65-5.83a7.92,7.92,0,0,0,1.53-5A8.26,8.26,0,0,0,29.91,243c-1.18-2.08-2.72-4-3.55-6.21s-.77-5,1-6.69c1.42-1.35,3.56-1.58,5.52-1.49A12.73,12.73,0,0,1,38,230.37c5.17,2.75,8.21,8.75,13.68,10.84,2.11.8,4.41.94,6.6,1.48s4.44,1.61,5.49,3.61c2.07,3.94-1.53,8.92-.05,13.12,1.31,3.72,5,5.08,7.08,8.41a8,8,0,0,1,1,4.88A23.49,23.49,0,0,1,70,281a73.75,73.75,0,0,1-4.37,7.87S42.42,304.54,42.21,304.67Z"/></g><g id="_Group_5" data-name="&lt;Group&gt;"><path id="_Path_10" data-name="&lt;Path&gt;" class="cls-5" d="M55.73,296.38h0a.64.64,0,0,1-.63-.65c.56-25.32-11.89-53-20.72-61a.64.64,0,0,1,.85-.95c9,8.11,21.71,36.26,21.14,61.94A.64.64,0,0,1,55.73,296.38Z"/></g><g id="_Group_6" data-name="&lt;Group&gt;"><path id="_Path_11" data-name="&lt;Path&gt;" class="cls-5" d="M51.06,265.54a.61.61,0,0,1-.19,0c-8.18-2.36-18.31-2.6-18.42-2.6a.64.64,0,0,1-.62-.65.62.62,0,0,1,.65-.62c.1,0,10.4.25,18.74,2.66a.64.64,0,0,1-.16,1.25Z"/></g></g><g id="Speech_Bubble" data-name="Speech Bubble"><g id="_Group_7" data-name="&lt;Group&gt;"><path id="_Path_12" data-name="&lt;Path&gt;" class="cls-6" d="M286.75,271.73,283,269.53a4.79,4.79,0,0,1-2.16-3.75V108.27a4.79,4.79,0,0,1,2.17-3.75L388.3,43.69a4.79,4.79,0,0,1,4.33,0l3.79,2.19a4.78,4.78,0,0,1,2.17,3.75V207.15a4.79,4.79,0,0,1-2.16,3.75L291.08,271.73A4.78,4.78,0,0,1,286.75,271.73Z"/><path id="_Path_13" data-name="&lt;Path&gt;" class="cls-6" d="M398.57,49.28c-.15-1.12-1.06-1.53-2.15-.9L291.08,109.21a4.48,4.48,0,0,0-1.53,1.61l-8.13-4.69a4.43,4.43,0,0,1,1.53-1.62L388.3,43.69a4.79,4.79,0,0,1,4.33,0l3.79,2.19A4.83,4.83,0,0,1,398.57,49.28Z"/><path id="_Path_14" data-name="&lt;Path&gt;" class="cls-7" d="M290.71,271.9a4.83,4.83,0,0,1-4-.17l-3.8-2.2a4.8,4.8,0,0,1-2.16-3.75V108.26a4.43,4.43,0,0,1,.63-2.13l8.13,4.69a4.37,4.37,0,0,0-.64,2.14V270.48C288.91,271.72,289.69,272.29,290.71,271.9Z"/><path id="_Path_15" data-name="&lt;Path&gt;" class="cls-8" d="M288.91,113V270.48c0,1.38,1,1.94,2.17,1.25L396.43,210.9a4.79,4.79,0,0,0,2.16-3.75V49.63c0-1.38-1-1.94-2.16-1.25L291.08,109.21A4.79,4.79,0,0,0,288.91,113Z"/><path id="_Path_16" data-name="&lt;Path&gt;" class="cls-6" d="M264.31,173c-1.36-.81-7.67-4.4-8-4.59a2,2,0,0,1-.43-3.09l24.91-26.72,8.12,4.66L264,170A2,2,0,0,0,264.31,173Z"/><path id="_Path_17" data-name="&lt;Path&gt;" class="cls-8" d="M288.91,143.27,264,170a2,2,0,0,0,1.63,3.36l23.27-1.92Z"/></g><path id="_Path_18" data-name="&lt;Path&gt;" class="cls-4" d="M343.75,95.18C356,88.09,366,93.84,366,108s-10,31.42-22.23,38.5-22.23,1.34-22.23-12.84S331.47,102.27,343.75,95.18Z"/><path id="_Path_19" data-name="&lt;Path&gt;" class="cls-5" d="M343.6,106.34c4-2.3,7.21-.44,7.21,4.16A15.94,15.94,0,0,1,343.6,123c-4,2.3-7.21.44-7.21-4.16A15.94,15.94,0,0,1,343.6,106.34Z"/><path id="_Path_20" data-name="&lt;Path&gt;" class="cls-5" d="M357.81,130.86c0-7.56-5.31-10.62-11.85-6.84l-4.09,2.36c-6.54,3.78-11.85,13-11.85,20.52V149a12.17,12.17,0,0,0,3.82.59,20.05,20.05,0,0,0,9.91-3,43.81,43.81,0,0,0,14.06-13.91Z"/><path id="_Path_21" data-name="&lt;Path&gt;" class="cls-4" d="M329.67,216.71l28.17-16.26c1.2-.69,2.17-.13,2.17,1.25v9.07a4.79,4.79,0,0,1-2.17,3.75l-28.17,16.26c-1.2.69-2.17.13-2.17-1.25v-9.07A4.79,4.79,0,0,1,329.67,216.71Z"/><path class="cls-9" d="M315.88,196.45l55.73-32.18c1.43-.83,2.6-.16,2.6,1.5v3.38a5.74,5.74,0,0,1-2.6,4.5l-55.73,32.18c-1.43.83-2.6.16-2.6-1.5v-3.38A5.74,5.74,0,0,1,315.88,196.45Z"/><path class="cls-9" d="M322.4,173.16q1.14-.66,1.77-.2t.63,2.05a5.94,5.94,0,0,1-.63,2.8,4.52,4.52,0,0,1-1.77,1.86l-1.5.87v3.23a.74.74,0,0,1-.08.32.47.47,0,0,1-.18.22l-.76.44a.14.14,0,0,1-.18,0,.31.31,0,0,1-.08-.23v-9.35a.75.75,0,0,1,.08-.32.48.48,0,0,1,.18-.22Zm-1.5,5.57,1.46-.84a2.41,2.41,0,0,0,.86-.82,2.45,2.45,0,0,0,.32-1.32q0-.81-.32-.94a1,1,0,0,0-.86.18l-1.46.84Z"/><path class="cls-9" d="M329,169.35c.1-.06.18-.06.23,0a.7.7,0,0,1,.13.29l2.3,7.82a.43.43,0,0,1,0,.1.74.74,0,0,1-.08.32.47.47,0,0,1-.18.22l-.68.39c-.12.07-.21.08-.26,0a.42.42,0,0,1-.1-.18L330,177l-3,1.72-.4,1.84a1.52,1.52,0,0,1-.1.3.62.62,0,0,1-.26.28l-.68.39a.14.14,0,0,1-.18,0,.3.3,0,0,1-.08-.23.53.53,0,0,1,0-.11l2.3-10.48a2.13,2.13,0,0,1,.13-.45.54.54,0,0,1,.23-.25Zm.52,6.06-1-3.53-1,4.72Z"/><path class="cls-9" d="M335.16,165.65a2.45,2.45,0,0,1,1.11-.38,1.35,1.35,0,0,1,.8.19,1.3,1.3,0,0,1,.48.58,2.2,2.2,0,0,1,.18.78.63.63,0,0,1-.07.32.52.52,0,0,1-.18.21l-.66.38c-.11.06-.19.08-.24,0a.43.43,0,0,1-.15-.17.74.74,0,0,0-.43-.38,1.12,1.12,0,0,0-.85.22,2.54,2.54,0,0,0-.46.35,2.5,2.5,0,0,0-.39.45,2.25,2.25,0,0,0-.26.52,1.67,1.67,0,0,0-.09.55,1,1,0,0,0,.09.49.38.38,0,0,0,.3.19,1.72,1.72,0,0,0,.56,0l.87-.2a3.54,3.54,0,0,1,1-.12,1.12,1.12,0,0,1,.67.22,1.22,1.22,0,0,1,.39.6,3.22,3.22,0,0,1,.13,1,4.85,4.85,0,0,1-.19,1.32,5.49,5.49,0,0,1-.54,1.26,5.78,5.78,0,0,1-.86,1.12,5.17,5.17,0,0,1-1.14.89,3,3,0,0,1-1,.38,1.51,1.51,0,0,1-.85-.07,1.24,1.24,0,0,1-.6-.55,2.22,2.22,0,0,1-.25-1,.62.62,0,0,1,.07-.32.51.51,0,0,1,.18-.21l.66-.38c.11-.06.19-.08.24-.05a.31.31,0,0,1,.14.18,1.53,1.53,0,0,0,.16.29.49.49,0,0,0,.25.19.83.83,0,0,0,.4,0,2,2,0,0,0,.6-.25,3.84,3.84,0,0,0,.55-.38,2.73,2.73,0,0,0,.46-.48,2.65,2.65,0,0,0,.32-.56,1.64,1.64,0,0,0,.12-.63.61.61,0,0,0-.13-.44.53.53,0,0,0-.4-.12,3.3,3.3,0,0,0-.66.11l-.91.19a2.75,2.75,0,0,1-.82.06,1,1,0,0,1-.58-.25,1.3,1.3,0,0,1-.34-.62,4.06,4.06,0,0,1-.11-1.06,4.75,4.75,0,0,1,.19-1.31,5.61,5.61,0,0,1,.52-1.24,5.5,5.5,0,0,1,.79-1.07A4.27,4.27,0,0,1,335.16,165.65Z"/><path class="cls-9" d="M341.73,161.86a2.47,2.47,0,0,1,1.11-.38,1.36,1.36,0,0,1,.8.19,1.3,1.3,0,0,1,.48.58,2.19,2.19,0,0,1,.18.78.61.61,0,0,1-.07.32.51.51,0,0,1-.18.21l-.66.38c-.11.06-.19.08-.24,0a.44.44,0,0,1-.15-.17.75.75,0,0,0-.43-.38,1.13,1.13,0,0,0-.85.22,2.58,2.58,0,0,0-.46.35,2.54,2.54,0,0,0-.39.45,2.26,2.26,0,0,0-.26.52,1.66,1.66,0,0,0-.09.55,1,1,0,0,0,.09.49.38.38,0,0,0,.3.19,1.74,1.74,0,0,0,.56,0l.87-.2a3.59,3.59,0,0,1,1-.12,1.12,1.12,0,0,1,.67.22,1.22,1.22,0,0,1,.39.6,3.23,3.23,0,0,1,.13,1,4.86,4.86,0,0,1-.19,1.32,5.46,5.46,0,0,1-.54,1.26,5.74,5.74,0,0,1-.86,1.13,5.18,5.18,0,0,1-1.14.89,3,3,0,0,1-1,.39,1.51,1.51,0,0,1-.85-.07,1.22,1.22,0,0,1-.6-.55,2.21,2.21,0,0,1-.25-1,.61.61,0,0,1,.07-.32.49.49,0,0,1,.18-.21l.66-.38c.11-.06.19-.08.24-.05a.3.3,0,0,1,.14.18,1.67,1.67,0,0,0,.16.29.49.49,0,0,0,.25.19.83.83,0,0,0,.4,0,2,2,0,0,0,.6-.25,3.89,3.89,0,0,0,.54-.38,2.72,2.72,0,0,0,.46-.48,2.66,2.66,0,0,0,.32-.56,1.63,1.63,0,0,0,.12-.63.61.61,0,0,0-.13-.45.53.53,0,0,0-.4-.12,3.38,3.38,0,0,0-.66.11l-.91.19a2.78,2.78,0,0,1-.82.06,1,1,0,0,1-.58-.25,1.29,1.29,0,0,1-.34-.62,4,4,0,0,1-.11-1.06,4.76,4.76,0,0,1,.19-1.31,5.63,5.63,0,0,1,.52-1.24,5.54,5.54,0,0,1,.79-1.07A4.31,4.31,0,0,1,341.73,161.86Z"/><path class="cls-9" d="M349,163.11l-.81,4.8a2.38,2.38,0,0,1-.12.42.49.49,0,0,1-.21.26l-.76.44c-.09.05-.17.05-.22,0a.55.55,0,0,1-.11-.29l-1.21-8.44a.88.88,0,0,1,0-.11.75.75,0,0,1,.08-.32.47.47,0,0,1,.18-.22l.7-.4a.19.19,0,0,1,.18,0c.06,0,.09.1.11.24l.79,5.68.7-4.27a1.93,1.93,0,0,1,.09-.31.53.53,0,0,1,.24-.3l.77-.45c.11-.07.19-.06.24,0a.71.71,0,0,1,.09.21l.7,3.46.79-6.59a.9.9,0,0,1,.11-.37.54.54,0,0,1,.18-.19l.7-.4a.14.14,0,0,1,.18,0,.31.31,0,0,1,.08.23,1.12,1.12,0,0,1,0,.12l-1.2,9.83a1.53,1.53,0,0,1-.11.42.55.55,0,0,1-.22.27l-.76.44c-.09.05-.17,0-.21,0a.86.86,0,0,1-.12-.29Z"/><path class="cls-9" d="M353.7,158.87a9.48,9.48,0,0,1,.2-1.64,7.14,7.14,0,0,1,.51-1.54,6,6,0,0,1,.85-1.33,4.5,4.5,0,0,1,1.21-1,2.37,2.37,0,0,1,1.19-.39,1.19,1.19,0,0,1,.85.35,2.2,2.2,0,0,1,.52.95,5.77,5.77,0,0,1,.21,1.42q0,.27,0,.6t0,.68q0,.35,0,.69c0,.22,0,.43,0,.62a9.56,9.56,0,0,1-.2,1.64,7.14,7.14,0,0,1-.51,1.54,5.87,5.87,0,0,1-.85,1.32,4.58,4.58,0,0,1-1.2,1,2.41,2.41,0,0,1-1.21.39,1.2,1.2,0,0,1-.85-.34,2.09,2.09,0,0,1-.51-.95,6,6,0,0,1-.2-1.41c0-.18,0-.38,0-.6s0-.45,0-.68,0-.47,0-.69S353.69,159.06,353.7,158.87Zm4.26-2.39a1.86,1.86,0,0,0-.44-1.36c-.27-.23-.62-.21-1.06,0a2.71,2.71,0,0,0-1.06,1.18,4.48,4.48,0,0,0-.44,1.87q0,.56,0,1.24c0,.45,0,.85,0,1.21a1.83,1.83,0,0,0,.44,1.35q.4.33,1.06,0a2.72,2.72,0,0,0,1.06-1.17,4.46,4.46,0,0,0,.44-1.86q0-.56,0-1.23C358,157.24,358,156.84,358,156.48Z"/><path class="cls-9" d="M363.62,149.36q1.17-.68,1.79-.19a2.47,2.47,0,0,1,.61,2,6.13,6.13,0,0,1-.31,2,5,5,0,0,1-.93,1.64l1.3,2.83a.39.39,0,0,1,0,.14.61.61,0,0,1-.06.26.39.39,0,0,1-.15.18l-.8.46c-.12.07-.22.08-.28,0a.54.54,0,0,1-.13-.18l-1.23-2.66-1.25.72v3.37a.74.74,0,0,1-.08.32.48.48,0,0,1-.18.22l-.76.44a.14.14,0,0,1-.18,0,.3.3,0,0,1-.08-.23V151.3A.73.73,0,0,1,361,151a.48.48,0,0,1,.18-.22Zm-1.41,5.38,1.36-.79a2.54,2.54,0,0,0,.86-.78,2.27,2.27,0,0,0,.32-1.29q0-.81-.32-.9a1.18,1.18,0,0,0-.86.22l-1.36.79Z"/><path class="cls-9" d="M370.29,145.51a2.67,2.67,0,0,1,1.21-.42,1.16,1.16,0,0,1,.86.31,2.08,2.08,0,0,1,.53,1,6.55,6.55,0,0,1,.22,1.52q0,1,0,2.14a10.36,10.36,0,0,1-.22,1.78,7.29,7.29,0,0,1-.52,1.56,5.52,5.52,0,0,1-.84,1.29,4.62,4.62,0,0,1-1.18,1L368,157a.14.14,0,0,1-.18,0,.31.31,0,0,1-.08-.23v-9.35a.74.74,0,0,1,.08-.32.48.48,0,0,1,.18-.22Zm1.54,3.11a3.4,3.4,0,0,0-.12-.79,1.17,1.17,0,0,0-.29-.53.67.67,0,0,0-.48-.18,1.47,1.47,0,0,0-.7.24l-1.26.73v6.52l1.31-.75a2.55,2.55,0,0,0,.67-.55,3.23,3.23,0,0,0,.47-.73,4,4,0,0,0,.29-.86,5.6,5.6,0,0,0,.12-.94C371.86,150,371.86,149.32,371.83,148.62Z"/></g><g id="Question_Marks" data-name="Question Marks"><path class="cls-4" d="M233,.38a18.53,18.53,0,0,1,4.94,1.86,14.23,14.23,0,0,1,3.93,3.12,11.25,11.25,0,0,1,2.32,4.2,9.94,9.94,0,0,1,.1,5.08,10.13,10.13,0,0,1-1.55,3.72,12.14,12.14,0,0,1-2.44,2.56,19.74,19.74,0,0,1-2.9,1.87l-2.88,1.53A16.3,16.3,0,0,0,232,25.91,4.67,4.67,0,0,0,230.48,28a2.22,2.22,0,0,1-.74.95,1.3,1.3,0,0,1-1.1.22l-4.24-.94a1.57,1.57,0,0,1-1-.69,1.27,1.27,0,0,1-.18-1.15A10,10,0,0,1,225,22.74a13.94,13.94,0,0,1,2.61-2.52,20.12,20.12,0,0,1,3-1.83q1.54-.77,2.88-1.5a13,13,0,0,0,2.27-1.54,3.6,3.6,0,0,0,1.2-2,4.31,4.31,0,0,0-1-3.88,7.79,7.79,0,0,0-4.44-2.42q-4.74-1.05-8,3.2a3.24,3.24,0,0,1-.79.79,1.46,1.46,0,0,1-1.1.08l-4.52-1a1.26,1.26,0,0,1-.79-.53,1.18,1.18,0,0,1-.17-1,8.83,8.83,0,0,1,2.08-3.72,14,14,0,0,1,3.88-3,16.92,16.92,0,0,1,5.12-1.7A14.88,14.88,0,0,1,233,.38Zm-4.78,32.17a1.56,1.56,0,0,1,1.17,1.84l-1.09,4.91a1.56,1.56,0,0,1-1.84,1.17l-4.8-1.06a1.56,1.56,0,0,1-1.17-1.84l1.09-4.91a1.56,1.56,0,0,1,1.84-1.17Z"/><path class="cls-4" d="M238.31,47.29a12.77,12.77,0,0,1,3.64-.08,9.84,9.84,0,0,1,3.32,1,7.79,7.79,0,0,1,2.56,2.1,6.86,6.86,0,0,1,1.37,3.23,7,7,0,0,1,0,2.79,8.35,8.35,0,0,1-.91,2.27,13.62,13.62,0,0,1-1.38,1.94l-1.46,1.72a11.22,11.22,0,0,0-1.17,1.65,3.21,3.21,0,0,0-.46,1.71,1.54,1.54,0,0,1-.23.8.9.9,0,0,1-.65.43l-3,.48a1.09,1.09,0,0,1-.81-.19.88.88,0,0,1-.41-.69,6.85,6.85,0,0,1,.21-2.77,9.55,9.55,0,0,1,1-2.29,13.86,13.86,0,0,1,1.44-1.93q.79-.89,1.46-1.7a9,9,0,0,0,1.06-1.57,2.5,2.5,0,0,0,.26-1.58,3,3,0,0,0-1.64-2.23,5.37,5.37,0,0,0-3.46-.41,5.18,5.18,0,0,0-4.32,4.1,2.21,2.21,0,0,1-.3.71,1,1,0,0,1-.68.33l-3.15.52a.87.87,0,0,1-.64-.13.82.82,0,0,1-.35-.58A6.09,6.09,0,0,1,230,54a9.6,9.6,0,0,1,1.72-2.92,11.67,11.67,0,0,1,2.84-2.4A10.27,10.27,0,0,1,238.31,47.29Zm5.17,21.85a1.08,1.08,0,0,1,1.22.88l.56,3.43a1.08,1.08,0,0,1-.88,1.22l-3.35.55a1.08,1.08,0,0,1-1.22-.88l-.56-3.43a1.08,1.08,0,0,1,.88-1.22Z"/><g class="cls-10"><path class="cls-11" d="M238.31,47.29a12.77,12.77,0,0,1,3.64-.08,9.84,9.84,0,0,1,3.32,1,7.79,7.79,0,0,1,2.56,2.1,6.86,6.86,0,0,1,1.37,3.23,7,7,0,0,1,0,2.79,8.35,8.35,0,0,1-.91,2.27,13.62,13.62,0,0,1-1.38,1.94l-1.46,1.72a11.22,11.22,0,0,0-1.17,1.65,3.21,3.21,0,0,0-.46,1.71,1.54,1.54,0,0,1-.23.8.9.9,0,0,1-.65.43l-3,.48a1.09,1.09,0,0,1-.81-.19.88.88,0,0,1-.41-.69,6.85,6.85,0,0,1,.21-2.77,9.55,9.55,0,0,1,1-2.29,13.86,13.86,0,0,1,1.44-1.93q.79-.89,1.46-1.7a9,9,0,0,0,1.06-1.57,2.5,2.5,0,0,0,.26-1.58,3,3,0,0,0-1.64-2.23,5.37,5.37,0,0,0-3.46-.41,5.18,5.18,0,0,0-4.32,4.1,2.21,2.21,0,0,1-.3.71,1,1,0,0,1-.68.33l-3.15.52a.87.87,0,0,1-.64-.13.82.82,0,0,1-.35-.58A6.09,6.09,0,0,1,230,54a9.6,9.6,0,0,1,1.72-2.92,11.67,11.67,0,0,1,2.84-2.4A10.27,10.27,0,0,1,238.31,47.29Zm5.17,21.85a1.08,1.08,0,0,1,1.22.88l.56,3.43a1.08,1.08,0,0,1-.88,1.22l-3.35.55a1.08,1.08,0,0,1-1.22-.88l-.56-3.43a1.08,1.08,0,0,1,.88-1.22Z"/></g><path class="cls-4" d="M266.58,52.67a1.28,1.28,0,0,1,.3,1.76l-2.38,3.35a1.28,1.28,0,0,1-1.76.3l-3.27-2.33a1.28,1.28,0,0,1-.3-1.76l2.38-3.35a1.28,1.28,0,0,1,1.76-.3ZM280.43,30a15.13,15.13,0,0,1,3.13,3,11.63,11.63,0,0,1,2,3.6,9.22,9.22,0,0,1,.41,3.9,8.13,8.13,0,0,1-1.54,3.86A8.27,8.27,0,0,1,282,46.61a9.85,9.85,0,0,1-2.65,1.15,16.24,16.24,0,0,1-2.78.49l-2.66.23a13.26,13.26,0,0,0-2.36.42A3.81,3.81,0,0,0,269.77,50a1.82,1.82,0,0,1-.86.48,1.07,1.07,0,0,1-.9-.18l-2.89-2.06a1.29,1.29,0,0,1-.53-.83,1,1,0,0,1,.23-.93,8.14,8.14,0,0,1,2.48-2.16,11.44,11.44,0,0,1,2.77-1.07,16.37,16.37,0,0,1,2.83-.43q1.41-.09,2.64-.21a10.61,10.61,0,0,0,2.2-.44A3,3,0,0,0,279.29,41a3.53,3.53,0,0,0,.47-3.25,6.36,6.36,0,0,0-2.57-3.23q-3.24-2.3-7.06-.15a2.64,2.64,0,0,1-.85.34,1.2,1.2,0,0,1-.85-.29l-3.08-2.19a1,1,0,0,1-.43-.65,1,1,0,0,1,.19-.79,7.21,7.21,0,0,1,2.75-2.14,11.39,11.39,0,0,1,3.88-1,13.79,13.79,0,0,1,4.4.35A12.17,12.17,0,0,1,280.43,30Z"/><g class="cls-12"><path class="cls-13" d="M266.58,52.67a1.28,1.28,0,0,1,.3,1.76l-2.38,3.35a1.28,1.28,0,0,1-1.76.3l-3.27-2.33a1.28,1.28,0,0,1-.3-1.76l2.38-3.35a1.28,1.28,0,0,1,1.76-.3ZM280.43,30a15.13,15.13,0,0,1,3.13,3,11.63,11.63,0,0,1,2,3.6,9.22,9.22,0,0,1,.41,3.9,8.13,8.13,0,0,1-1.54,3.86A8.27,8.27,0,0,1,282,46.61a9.85,9.85,0,0,1-2.65,1.15,16.24,16.24,0,0,1-2.78.49l-2.66.23a13.26,13.26,0,0,0-2.36.42A3.81,3.81,0,0,0,269.77,50a1.82,1.82,0,0,1-.86.48,1.07,1.07,0,0,1-.9-.18l-2.89-2.06a1.29,1.29,0,0,1-.53-.83,1,1,0,0,1,.23-.93,8.14,8.14,0,0,1,2.48-2.16,11.44,11.44,0,0,1,2.77-1.07,16.37,16.37,0,0,1,2.83-.43q1.41-.09,2.64-.21a10.61,10.61,0,0,0,2.2-.44A3,3,0,0,0,279.29,41a3.53,3.53,0,0,0,.47-3.25,6.36,6.36,0,0,0-2.57-3.23q-3.24-2.3-7.06-.15a2.64,2.64,0,0,1-.85.34,1.2,1.2,0,0,1-.85-.29l-3.08-2.19a1,1,0,0,1-.43-.65,1,1,0,0,1,.19-.79,7.21,7.21,0,0,1,2.75-2.14,11.39,11.39,0,0,1,3.88-1,13.79,13.79,0,0,1,4.4.35A12.17,12.17,0,0,1,280.43,30Z"/></g></g><g id="Character"><g id="_Group_8" data-name="&lt;Group&gt;"><path id="_Path_22" data-name="&lt;Path&gt;" class="cls-7" d="M192.12,141.19H156.59V55.11a28.19,28.19,0,0,1,28.19-28.19h3.28a28.19,28.19,0,0,1,28.19,28.19v62A24.13,24.13,0,0,1,192.12,141.19Z"/></g><g id="_Group_9" data-name="&lt;Group&gt;"><g id="_Group_10" data-name="&lt;Group&gt;"><path id="_Path_23" data-name="&lt;Path&gt;" class="cls-7" d="M153.13,348.42a66.21,66.21,0,0,0-1,10.8c-.12,6.56-1.33,8.89-1.49,14.27-.18,6.15.88,8.45,3.38,11.91s9,6.59,11.81.75,2.41-9.67,1.53-15.7c-.92-6.24-1-9.68-1.56-14.44-.47-4.19-1-7.38-1-7.38Z"/><path id="_Path_24" data-name="&lt;Path&gt;" class="cls-14" d="M171.75,304.85l-21.6-.39c.32,14.42,2.61,30.43,3,44,.07,2.55-.06,19.79.9,25,1.44,7.87,10.79,6.81,11.29,2.1s-.6-24.85-.57-26.92c-.08-8.68,4-23.33,6.12-38.91C171,309,171.65,305.6,171.75,304.85Z"/></g><g id="_Group_11" data-name="&lt;Group&gt;"><path id="_Path_25" data-name="&lt;Path&gt;" class="cls-7" d="M199.5,337.2s-.85-.46-1,.45c-.21,1.08-.52,3.32-1,5.09-.63,2.47-1.14,6.54-.77,8.55s5.07,4.61,8.12,5.54a24.84,24.84,0,0,1,10,6c3,2.84,9.53,5.52,14,5.49,5.25,0,8.91-1.75,10.64-4.56s-1.58-3.15-7.57-7l-4.66-3c-9.5-6.21-13-9.53-15.67-15.74Z"/><path id="_Path_26" data-name="&lt;Path&gt;" class="cls-14" d="M211.67,333.36c-.16-4.47,2.9-42.35,2.9-42.35l-20.52,9.35c4.39,26.22,5.33,32.41,5.41,36.7h0a3.76,3.76,0,0,0-.12,1.1c0,5.09,5.77,7.84,10.25,11.24a83.59,83.59,0,0,0,12.13,7.92c3.26,1.64,9.88,1.79,10.7-.31-5.46-4.17-13.4-10.41-17.74-15.16C212.62,339.57,211.83,337.82,211.67,333.36Z"/></g><path id="_Path_27" data-name="&lt;Path&gt;" class="cls-6" d="M159,164.14c-7.88,17.3-7.88,30.67-6.57,52.74,1.19,20.24,3.1,38.07,3.1,38.07-.3,3.59-5.3,10.6-5.94,26.48-.6,14.84,1,33.71,1,33.71s11.21,6.21,19.5-.05c0,0,8-38.19,10.34-56.77,2-16.21,5.6-36.93,5.6-36.93l7.53,36.84a96.41,96.41,0,0,0-3.53,16c-1.06,10.93,5.05,32.39,5.05,32.39s11.58,3.46,18.65-2.82c0,0,2.65-34.89,3.63-48.05,1.32-17.63-1.46-65.35-3.63-90.62Z"/><path id="_Path_28" data-name="&lt;Path&gt;" class="cls-7" d="M186,221.39l3.11-27.73s13.94-1.86,20.26-7.8A22.88,22.88,0,0,1,193,196.24L188.48,222l5.09,36.19Z"/></g><path id="_Path_29" data-name="&lt;Path&gt;" class="cls-14" d="M242.49,157.32a117.51,117.51,0,0,0,.76-15.25c-.3-4.4-1.09-5.12-7.24-12.91-8.31-10.53-15.4-20-22.89-29.4-5.35-6.72-11-7.76-16.48-7.45-3.84.21,3.65,18.68,7.43,29.61l21.55,23.18a4.62,4.62,0,0,1,.86,3.17L225.15,168l6.45,8.63S241.37,168.2,242.49,157.32Z"/><path id="_Path_30" data-name="&lt;Path&gt;" class="cls-3" d="M175.87,92.9h0c-4.17.29-11.75,1-11.75,1-4.37,2.44-5.48,4.44-6.29,10.25-.35,2.47,1.67,9.06,3.4,18.43l3.28,17.37-.36,8.62c-1.7,5.26-5.56,11.79-9,21.42,16.7,9.32,30.7,9.66,43.4,8,9.68-1.24,14.81-3.59,16.52-5.9-.36-9.52-1-15.39-1.19-25.33-.07-4.18.18-8.39.34-13.19,6.5-5.34,6.57-14.21,3-19.95-8.23-13.33-16.24-21.72-21.54-21.29Z"/><path id="_Path_31" data-name="&lt;Path&gt;" class="cls-4" d="M175.87,92.9h0c-4.17.29-11.75,1-11.75,1-4.37,2.44-5.48,4.44-6.29,10.25-.35,2.47,1.67,9.06,3.4,18.43l3.28,17.37-.36,8.62c-1.7,5.26-5.56,11.79-9,21.42,16.7,9.32,30.7,9.66,43.4,8,9.68-1.24,14.81-3.59,16.52-5.9-.36-9.52-1-15.39-1.19-25.33-.07-4.18.18-8.39.34-13.19,6.5-5.34,6.57-14.21,3-19.95-8.23-13.33-16.24-21.72-21.54-21.29Z"/><path class="cls-15" d="M201.34,133.7s-7.63,5.92-16.33,2.83a14.9,14.9,0,0,1-10-10.69s-.92,9.95,10.05,13.34C195.69,142.45,201.34,133.7,201.34,133.7Z"/><g id="_Group_12" data-name="&lt;Group&gt;"><g id="_Group_13" data-name="&lt;Group&gt;"><path class="cls-14" d="M211.68,65.59c-.33,14.44-5,18-7.36,19s-6.88.4-11.28-.33V93s5.08,5.32,4.7,9.29-8,4.42-13.68.53a43.37,43.37,0,0,1-8.43-7.61,3.08,3.08,0,0,1-.73-2V72.79s-2.41,2.55-6.68-.37a7.86,7.86,0,0,1-2-11.42c1.86-2.18,6.57-2.34,8.84,1.06,1.27,2.49,1.45,5,2.87,4,3.8-2.74,1.76-9,6.36-12h0a32.13,32.13,0,0,1,4.68-2c8.19-2.83,15.29-5.21,17-10.81C209.2,43,212.08,48.56,211.68,65.59Z"/></g><circle class="cls-16" cx="195.53" cy="76.59" r="1.9"/><g id="_Group_14" data-name="&lt;Group&gt;"><path id="_Path_32" data-name="&lt;Path&gt;" class="cls-7" d="M194.27,63.4a2,2,0,1,1-2.1-2A2,2,0,0,1,194.27,63.4Z"/></g><g id="_Group_15" data-name="&lt;Group&gt;"><path id="_Path_33" data-name="&lt;Path&gt;" class="cls-7" d="M209.42,63.6a1.84,1.84,0,0,1-1.72,2,1.74,1.74,0,0,1-1.91-1.8,1.82,1.82,0,1,1,3.63-.17Z"/></g><path class="cls-6" d="M191.7,68.54a6.51,6.51,0,0,1-6.5-6.5c0-4.42,4.56-4.42,6.5-4.42s6.5,0,6.5,4.42A6.51,6.51,0,0,1,191.7,68.54Zm0-9.9c-3.94,0-5.48,1-5.48,3.4a5.48,5.48,0,1,0,11,0C197.18,59.6,195.64,58.64,191.7,58.64Z"/><path class="cls-6" d="M208.21,68.54a6.51,6.51,0,0,1-6.5-6.5c0-4.42,4.56-4.42,6.5-4.42s6.5,0,6.5,4.42A6.51,6.51,0,0,1,208.21,68.54Zm0-9.9c-3.94,0-5.48,1-5.48,3.4a5.48,5.48,0,1,0,11,0C213.69,59.6,212.15,58.64,208.21,58.64Z"/><g id="_Group_16" data-name="&lt;Group&gt;"><polygon id="_Path_34" data-name="&lt;Path&gt;" class="cls-17" points="199.21 59.94 199.53 72.09 205.92 70.11 199.21 59.94"/></g><g id="_Group_17" data-name="&lt;Group&gt;"><path id="_Path_35" data-name="&lt;Path&gt;" class="cls-17" d="M193,84.29c-4.64-.61-14.2-3.35-15.68-7.13A9.77,9.77,0,0,0,180.7,82c2.85,2.45,12.33,5.2,12.33,5.2Z"/></g><path id="_Path_36" data-name="&lt;Path&gt;" class="cls-7" d="M193.26,54,189,56.63a2.6,2.6,0,0,1,.86-3.5A2.42,2.42,0,0,1,193.26,54Z"/><path id="_Path_37" data-name="&lt;Path&gt;" class="cls-7" d="M210.51,56.92l-4.72-1.65a2.4,2.4,0,0,1,3.1-1.59A2.63,2.63,0,0,1,210.51,56.92Z"/><path class="cls-6" d="M197.69,62.56a.52.52,0,0,1-.51-.52c0-.83,1.65-1.37,3.12-1.37s2.43.54,2.43,1.37a.51.51,0,0,1-1,0,2.07,2.07,0,0,0-1.41-.34,5.81,5.81,0,0,0-2.1.35A.51.51,0,0,1,197.69,62.56Z"/><path class="cls-6" d="M185.72,62.12h-.06l-11.43-1a5.64,5.64,0,0,0-1.87-1.22l13.42,1.24a.51.51,0,0,1-.06,1Z"/></g><path class="cls-14" d="M138.79,74c3.74-5,6.29-8.77,9.7-13,1.94-2.43,3.18-4.17,5-6.66,1.28-1.72,2-3.16,3.46-3.7a12,12,0,0,0,4.17-2.86,26.18,26.18,0,0,0,2-2.52,37.57,37.57,0,0,1,7.55-7.61c3-2.27,6.35-4,9.44-6.16,1.84-1.29,3.82-3.43,1.58-5.43a5.25,5.25,0,0,0-2.39-1.14c-5.44-1.19-10.19.69-15.51,2A44.22,44.22,0,0,0,157,29.25,11.77,11.77,0,0,0,154,31a15.69,15.69,0,0,0-3.08,4.41c-2.39,4.22-7.35,7.94-10.84,11.22C136,50.46,132.34,54,127.67,58.23c-4.2,3.82-8.31,7.35-12.17,11.52-3.19,3.45-2,6.16-1.57,7.09,2.6,5.34,5.51,7.26,9,10.57,6,5.73,26.75,22.23,33.63,27.67a11.31,11.31,0,0,1,3.37,4.4l1.31,3c7.84,1.44,13.07-10.33,6.58-24.5A14.78,14.78,0,0,0,163,92.29C154.85,86.32,138.79,74,138.79,74Z"/><path class="cls-17" d="M138.79,74a20.7,20.7,0,0,1-9.58,6.6s5,1.28,11.85-4.87Z"/><path id="_Path_38" data-name="&lt;Path&gt;" class="cls-6" d="M240.45,146.89h0l-1.28-1.1v0a1.45,1.45,0,0,0-1.32-.15L224,149.43a5.11,5.11,0,0,0-3.12,2.92l-10,28.83a1.32,1.32,0,0,0,.18,1.47h0l1.32,1.14v0a1.44,1.44,0,0,0,1.33.16l13.88-3.78a5.11,5.11,0,0,0,3.12-2.92l10-28.83C240.95,147.7,240.83,147.17,240.45,146.89Z"/><path id="_Path_39" data-name="&lt;Path&gt;" class="cls-18" d="M212.16,182.28l10-28.83a5.11,5.11,0,0,1,3.12-2.92l13.88-3.78c1.29-.35,2,.39,1.54,1.65l-10,28.83a5.11,5.11,0,0,1-3.12,2.92l-13.88,3.78C212.42,184.28,211.73,183.54,212.16,182.28Z"/><path id="_Path_40" data-name="&lt;Path&gt;" class="cls-8" d="M223.77,151.34a5,5,0,0,0-1.61,2.12l-10,28.82a1.38,1.38,0,0,0,.14,1.45l-1.24-1.07h0a1.31,1.31,0,0,1-.19-1.47l10-28.83a4.89,4.89,0,0,1,1.48-2Z"/><path id="_Path_41" data-name="&lt;Path&gt;" class="cls-17" d="M236.64,160c-1,2.94-4.47,4.9-10.2,6.26s-8.91,7.45-8,9.3,10.19,3.57,13.9,3,7.44-5.89,8.56-7.55,2.43-13.24,1.24-14.83-3.7-1.34-3.7-1.34Z"/></g></g></svg>