<svg xmlns="http://www.w3.org/2000/svg" viewBox="0 0 427.53 408.78"><defs><style>.cls-1{fill:#e0e0e0;}.cls-2{fill:#f5f5f5;}.cls-3{opacity:0.8;}.cls-4{fill:#ebebeb;}.cls-10,.cls-11,.cls-4{fill-rule:evenodd;}.cls-11,.cls-5{fill:#fff;}.cls-10,.cls-6{fill:#e8505b;}.cls-7{opacity:0.3;}.cls-8{fill:#263238;}.cls-9{fill:#fafafa;}.cls-12{opacity:0.4;}.cls-13{fill:#ffbe9d;}.cls-14{fill:#eb996e;}.cls-15{fill:#455a64;}.cls-16{opacity:0.2;}</style></defs><title>index.svg</title><g id="Layer_2" data-name="Layer 2"><g id="Background_Complete" data-name="Background Complete"><path class="cls-1" d="M427.36,372.26s0-.37,0-1.09l0-3.16,0-12.06c0-10.44-.05-25.48-.09-43.94l.16.16-104.13,0h0l.21-.21c0,21.32,0,41.7,0,60.25l-.2-.2,74.9.1,21.51.05,5.74,0h0l-5.69,0-21.46.05-75,.1H323v-.2c0-18.55,0-38.93,0-60.25v-.21h.22l104.13,0h.16V312c0,18.51-.07,33.59-.09,44,0,5.2,0,9.26,0,12,0,1.37,0,2.41,0,3.13S427.36,372.26,427.36,372.26Z"/><path class="cls-1" d="M427.4,319.31c0,.12-23.29.21-52,.21s-52-.1-52-.21,23.29-.21,52-.21S427.4,319.19,427.4,319.31Z"/><rect class="cls-2" x="332.25" y="329.24" width="32.17" height="32.17"/><path class="cls-1" d="M419.81,334.55a2,2,0,0,1-.47,0l-1.36,0-5,.07-16.46.06-16.46-.06-5-.07-1.36,0a2,2,0,0,1-.47,0,2,2,0,0,1,.47,0l1.36,0,5-.07,16.46-.06,16.46.06,5,.07,1.36,0A2,2,0,0,1,419.81,334.55Z"/><path class="cls-1" d="M420.85,341.73a2.07,2.07,0,0,1-.48,0l-1.39,0-5.1.07-16.83.06-16.83-.06-5.1-.07-1.39,0a2.07,2.07,0,0,1-.48,0,2.09,2.09,0,0,1,.48,0l1.39,0,5.1-.07,16.83-.06,16.83.06,5.1.07,1.39,0A2.09,2.09,0,0,1,420.85,341.73Z"/><path class="cls-1" d="M420.85,348.92a2.08,2.08,0,0,1-.48,0L419,349l-5.1.07-16.83.06-16.83-.06-5.1-.07-1.39,0a2.08,2.08,0,0,1-.48,0,2.09,2.09,0,0,1,.48,0l1.39,0,5.1-.07,16.83-.06,16.83.06,5.1.07,1.39,0A2.08,2.08,0,0,1,420.85,348.92Z"/><path class="cls-1" d="M420.85,356.1a2.09,2.09,0,0,1-.48,0l-1.39,0-5.1.07-16.83.06-16.83-.06-5.1-.07-1.39,0a2.09,2.09,0,0,1-.48,0,2.08,2.08,0,0,1,.48,0l1.39,0,5.1-.07,16.83-.06,16.83.06,5.1.07,1.39,0A2.08,2.08,0,0,1,420.85,356.1Z"/><circle class="cls-2" cx="126.24" cy="43.28" r="43.28" transform="translate(74.78 166.41) rotate(-86.24)"/><path class="cls-1" d="M145.89,44.61a8.66,8.66,0,0,1-1.53.1l-4.21.08c-3.57,0-8.54.08-14.16.09h-.28v-.28c0-.9,0-1.85,0-2.81,0-6.27,0-11.94.08-16.05l.09-4.86A10.89,10.89,0,0,1,126,19.1a10.91,10.91,0,0,1,.11,1.78l.09,4.86c.05,4.11.08,9.78.08,16.05,0,1,0,1.91,0,2.81l-.28-.28c5.61,0,10.59,0,14.16.09l4.21.08A8.66,8.66,0,0,1,145.89,44.61Z"/><ellipse class="cls-1" cx="126.13" cy="10.75" rx="0.28" ry="3.64"/><ellipse class="cls-1" cx="143.32" cy="15.48" rx="3.58" ry="0.28" transform="translate(31.03 105.88) rotate(-45)"/><path class="cls-1" d="M157.38,25.54a15.07,15.07,0,0,1-3,2,15.08,15.08,0,0,1-3.14,1.73,9.6,9.6,0,0,1,2.85-2.21A9.61,9.61,0,0,1,157.38,25.54Z"/><ellipse class="cls-1" cx="159.18" cy="44.24" rx="4.96" ry="0.28"/><ellipse class="cls-1" cx="90.72" cy="43.57" rx="4.68" ry="0.28"/><ellipse class="cls-1" cx="96.55" cy="60.48" rx="4.77" ry="0.28" transform="translate(-16.58 73.94) rotate(-38.85)"/><path class="cls-1" d="M112.25,68.25a31.8,31.8,0,0,1-2.41,4.17,31.81,31.81,0,0,1-2.56,4.09,15.72,15.72,0,0,1,2.08-4.37A15.72,15.72,0,0,1,112.25,68.25Z"/><ellipse class="cls-1" cx="126.13" cy="77.17" rx="0.28" ry="4.96"/><path class="cls-1" d="M147.5,75.53a14.53,14.53,0,0,1-4.09-2.8,14.53,14.53,0,0,1-3.33-3.67,45.59,45.59,0,0,1,3.7,3.24A45.57,45.57,0,0,1,147.5,75.53Z"/><ellipse class="cls-1" cx="154.45" cy="61.64" rx="0.28" ry="4.36" transform="translate(1.65 127.26) rotate(-45)"/><ellipse class="cls-1" cx="97.11" cy="27.55" rx="0.28" ry="3.82" transform="translate(8.96 76.73) rotate(-45)"/><ellipse class="cls-1" cx="109.53" cy="14.57" rx="0.28" ry="3.74" transform="translate(21.93 81.91) rotate(-45.13)"/><g class="cls-3"><path class="cls-4" d="M361.64,21.11a28.67,28.67,0,0,1,6.23,4.39l6.65-2.37L380.77,33l-5,5a28.63,28.63,0,0,1,1.31,7.5l6.38,3-2.56,11.4-7.06,0a28.57,28.57,0,0,1-4.39,6.23l2.37,6.65L362,79.08l-5-5a28.63,28.63,0,0,1-7.5,1.31l-3,6.38L335,79.22V72.16a28.58,28.58,0,0,1-6.23-4.39l-6.65,2.37-6.25-9.87,5-5a28.69,28.69,0,0,1-1.31-7.5l-6.38-3,2.56-11.4h7.06a28.56,28.56,0,0,1,4.39-6.23l-2.37-6.65,9.87-6.25,5,5a28.63,28.63,0,0,1,7.5-1.31l3-6.38,11.4,2.56,0,7.06ZM351.59,34.52a12.53,12.53,0,1,0,9.49,15A12.53,12.53,0,0,0,351.59,34.52Z"/></g><path class="cls-2" d="M26.6,121.4h74S94,109.49,75,111.23c-18.18,1.65-19.11-5.86-28.36-6.78S29.69,110.61,26.6,121.4Z"/><path class="cls-2" d="M186.7,255.89h59.88s-5.29-9.64-20.71-8.23c-14.72,1.34-15.47-4.74-23-5.49S189.2,247.16,186.7,255.89Z"/></g><g id="Screens"><rect class="cls-5" x="272.81" y="103.94" width="145.28" height="97.28"/><path class="cls-6" d="M418.09,201.22s0-.61,0-1.77l0-5.13L418,174.75l-.11-70.81.21.21-145.27.05h0l.26-.26c0,34.65,0,67.61,0,97.28l-.24-.24,104.67.12,29.9.06,8,0h.05l-7.91,0-29.85.06-104.82.12h-.24v-.24c0-29.67,0-62.62,0-97.28v-.26h.27l145.27.05h.21v.21c0,29.67-.08,54-.11,70.94l-.05,19.52,0,5.09C418.11,200.64,418.09,201.22,418.09,201.22Z"/><path class="cls-6" d="M272.81,112.62c0-.14,32.5-.26,72.58-.26s72.58.12,72.58.26-32.49.26-72.58.26S272.81,112.76,272.81,112.62Z"/><g class="cls-7"><circle class="cls-6" cx="277.38" cy="108.24" r="1.16"/></g><g class="cls-7"><circle class="cls-6" cx="281.37" cy="108.24" r="1.16"/></g><g class="cls-7"><circle class="cls-6" cx="285.3" cy="108.24" r="1.16"/></g><g class="cls-7"><rect class="cls-6" x="285.3" y="122.76" width="38.75" height="38.75"/></g><ellipse class="cls-6" cx="364.42" cy="133.72" rx="33.76" ry="0.26"/><ellipse class="cls-6" cx="364.42" cy="140.92" rx="33.76" ry="0.26"/><ellipse class="cls-6" cx="364.42" cy="148.12" rx="33.76" ry="0.26"/><path class="cls-6" d="M370.56,155.32a9.05,9.05,0,0,1-1.57.1l-4.28.08c-3.61,0-8.6.08-14.11.08s-10.5,0-14.11-.08l-4.28-.08a9,9,0,0,1-1.57-.1,9.08,9.08,0,0,1,1.57-.1l4.28-.08c3.61,0,8.6-.08,14.11-.08s10.5,0,14.11.08l4.28.08A9.09,9.09,0,0,1,370.56,155.32Z"/><g class="cls-7"><rect class="cls-6" x="287.73" y="174.58" width="18.21" height="18.21"/></g><g class="cls-7"><rect class="cls-6" x="320.76" y="174.58" width="18.21" height="18.21"/></g><g class="cls-7"><rect class="cls-6" x="353.79" y="174.58" width="18.21" height="18.21"/></g><g class="cls-7"><rect class="cls-6" x="386.81" y="174.58" width="18.21" height="18.21"/></g><rect class="cls-5" x="7.11" y="138.98" width="129.42" height="52.57"/><path class="cls-6" d="M136.54,191.55s0-.32,0-.94l0-2.73,0-10.46L136.39,139l.14.14-129.41.06h0l.2-.2c0,18.41,0,36.18,0,52.57l-.2-.2,92.79.09,26.92.05,7.2,0h0l-7.16,0-26.87.05-92.93.09h-.2v-.2c0-16.39,0-34.16,0-52.57v-.2h.21l129.41.06h.14V139l-.08,38.53c0,4.53,0,8,0,10.43l0,2.7C136.55,191.25,136.54,191.55,136.54,191.55Z"/><path class="cls-6" d="M7.24,146.07c0-.11,28.93-.21,64.61-.21s64.61.09,64.61.21-28.92.2-64.61.2S7.24,146.19,7.24,146.07Z"/><g class="cls-7"><circle class="cls-6" cx="11.72" cy="142.9" r="0.94"/></g><g class="cls-7"><circle class="cls-6" cx="14.94" cy="142.9" r="0.94"/></g><g class="cls-7"><circle class="cls-6" cx="18.11" cy="142.9" r="0.94"/></g><g class="cls-7"><rect class="cls-6" x="18.11" y="154.62" width="31.26" height="31.26"/></g><ellipse class="cls-6" cx="91.66" cy="162.99" rx="35.93" ry="0.2"/><ellipse class="cls-6" cx="91.66" cy="169.36" rx="35.93" ry="0.2"/><path class="cls-6" d="M102,175.73a2.05,2.05,0,0,1-.47,0l-1.35,0-5,.07-16.35.06-16.36-.06-5-.07-1.35,0a2.05,2.05,0,0,1-.47,0,2,2,0,0,1,.47,0l1.35,0,5-.07,16.36-.06,16.35.06,5,.07,1.35,0A2,2,0,0,1,102,175.73Z"/></g><g id="Rocket"><path class="cls-2" d="M231.64,72.92c-2.17-1.45-5.15-.57-7.32.88s-4,3.43-6.45,4.37c-4.56,1.77-10.55-.33-14.09,3-2.25,2.14-2.48,5.66-4.2,8.25-2.9,4.36-9.85,6-10.45,11.2-.35,3,2.05,5.94,5,6.79a10.7,10.7,0,0,0,8.7-1.74c3-2,5.3-5,8.69-6.14S219.22,99.4,222,97s2.32-6.86,4.28-9.94A20,20,0,0,1,230.39,83c1.47-1.27,2.87-2.84,3.12-4.77S233,73,231.64,72.92"/><ellipse class="cls-8" cx="175.98" cy="286.42" rx="0.26" ry="1.25" transform="translate(-128.45 143.85) rotate(-33.34)"/><path class="cls-8" d="M171,276.35a12.15,12.15,0,0,1,1.9,4.63,12.15,12.15,0,0,1-1.9-4.63Z"/><path class="cls-8" d="M168.68,266.63a12.15,12.15,0,0,1,.91,4.92,12.15,12.15,0,0,1-.91-4.92Z"/><path class="cls-8" d="M168.33,256.64a12.15,12.15,0,0,1-.07,5,12.15,12.15,0,0,1,.07-5Z"/><path class="cls-8" d="M169.95,246.78a12.15,12.15,0,0,1-1.06,4.89,12.16,12.16,0,0,1,1.06-4.89Z"/><path class="cls-8" d="M173.54,237.46a12.14,12.14,0,0,1-2,4.57,12.15,12.15,0,0,1,2-4.57Z"/><path class="cls-8" d="M179.05,229.13a6.29,6.29,0,0,1-1.28,2.16,6.8,6.8,0,0,1-1.69,1.86c-.14-.09.45-1.05,1.27-2.17S178.94,229,179.05,229.13Z"/><ellipse class="cls-8" cx="184.05" cy="223.53" rx="2.5" ry="0.26" transform="translate(-104.75 202.63) rotate(-46.39)"/><ellipse class="cls-8" cx="191.06" cy="216.39" rx="2.5" ry="0.26" transform="translate(-97.17 200.58) rotate(-45.42)"/><ellipse class="cls-8" cx="197.8" cy="209" rx="2.5" ry="0.26" transform="translate(-89.24 229.36) rotate(-50.63)"/><path class="cls-8" d="M204.49,198.48a5.37,5.37,0,0,1-.84,2.38c-.64,1.24-1.33,2.14-1.45,2.06a7.33,7.33,0,0,1,1-2.3A7.46,7.46,0,0,1,204.49,198.48Z"/><path class="cls-8" d="M206.93,188.82a8.83,8.83,0,0,1-.82,4.93,19.68,19.68,0,0,1,.82-4.93Z"/><path class="cls-8" d="M206.19,178.88a8.83,8.83,0,0,1,.77,4.94,19.63,19.63,0,0,1-.77-4.94Z"/><path class="cls-8" d="M202.26,169.73c.12-.08.85.79,1.51,2a5.18,5.18,0,0,1,.85,2.38,7.83,7.83,0,0,1-1.31-2.13A7.91,7.91,0,0,1,202.26,169.73Z"/><path class="cls-8" d="M195.28,162.64a5.14,5.14,0,0,1,2.16,1.31c1.08.9,1.78,1.8,1.67,1.89s-1-.62-2-1.49S195.2,162.76,195.28,162.64Z"/><path class="cls-8" d="M186.19,158.58a8.53,8.53,0,0,1,4.73,1.62,21.37,21.37,0,0,1-4.73-1.62Z"/><path class="cls-8" d="M176.25,158.13a8.23,8.23,0,0,1,5-.26,8.14,8.14,0,0,1-2.49.26A8.25,8.25,0,0,1,176.25,158.13Z"/><path class="cls-8" d="M167,161.8c-.08-.11.78-.87,2-1.53a5,5,0,0,1,2.39-.83,8.49,8.49,0,0,1-2.14,1.29A8.36,8.36,0,0,1,167,161.8Z"/><path class="cls-8" d="M160.16,169a5.06,5.06,0,0,1,1.23-2.21c.86-1.11,1.74-1.84,1.84-1.74s-.59,1-1.43,2.06S160.29,169.07,160.16,169Z"/><path class="cls-8" d="M156.79,178.33a4.93,4.93,0,0,1,.19-2.52,5,5,0,0,1,1-2.33,8.42,8.42,0,0,1-.47,2.46A8.58,8.58,0,0,1,156.79,178.33Z"/><path class="cls-8" d="M158,188.18a5,5,0,0,1-1-2.33,5,5,0,0,1-.2-2.52,8.49,8.49,0,0,1,.71,2.4A8.33,8.33,0,0,1,158,188.18Z"/><path class="cls-8" d="M163.05,196.75c-.11.09-.94-.69-1.75-1.82a5.23,5.23,0,0,1-1.16-2.24c.13-.07.79.83,1.59,1.94A7.57,7.57,0,0,1,163.05,196.75Z"/><path class="cls-8" d="M170.42,203.49a5.53,5.53,0,0,1-2.15-1.31c-1.08-.87-1.83-1.73-1.74-1.83s1,.56,2.06,1.43S170.5,203.37,170.42,203.49Z"/><path class="cls-8" d="M179.08,208.46a6.17,6.17,0,0,1-2.35-.9c-1.24-.63-2.18-1.24-2.11-1.37a12.15,12.15,0,0,1,4.46,2.27Z"/><path class="cls-8" d="M188.6,211.49a9.48,9.48,0,0,1-4.84-1.24,17,17,0,0,1,4.84,1.24Z"/><path class="cls-8" d="M198.56,212a9,9,0,0,1-5,.1,7.52,7.52,0,0,1,2.5-.22A7.6,7.6,0,0,1,198.56,212Z"/><path class="cls-8" d="M208.18,209.43a8.76,8.76,0,0,1-4.7,1.69,20,20,0,0,1,4.7-1.69Z"/><path class="cls-8" d="M216.53,204c.1.1-.66,1-1.77,1.8a5.34,5.34,0,0,1-2.2,1.24c-.08-.12.79-.82,1.88-1.66S216.43,203.86,216.53,204Z"/><path class="cls-8" d="M223,196.4a5.43,5.43,0,0,1-1.23,2.21c-.84,1.12-1.67,1.89-1.78,1.79a7.37,7.37,0,0,1,1.36-2.11C222.22,197.2,222.91,196.32,223,196.4Z"/><path class="cls-8" d="M227.37,187.41A9.29,9.29,0,0,1,225.5,192a17.7,17.7,0,0,1,1.87-4.64Z"/><path class="cls-8" d="M229.3,177.61a9.59,9.59,0,0,1-.68,5,16.64,16.64,0,0,1,.68-5Z"/><path class="cls-8" d="M229,167.62a12.15,12.15,0,0,1,.39,5,12.15,12.15,0,0,1-.39-5Z"/><ellipse class="cls-8" cx="227.53" cy="160.28" rx="0.26" ry="2.5" transform="translate(-33.97 64.99) rotate(-15.14)"/><path class="cls-8" d="M223,148.62a6.13,6.13,0,0,1,1.33,2.14,6.23,6.23,0,0,1,.77,2.4,6.24,6.24,0,0,1-1.25-2.18A6.35,6.35,0,0,1,223,148.62Z"/><ellipse class="cls-8" cx="219.39" cy="142.07" rx="0.26" ry="2.5" transform="translate(-41.73 130.5) rotate(-30.39)"/><ellipse class="cls-8" cx="214.37" cy="133.41" rx="0.26" ry="2.5" transform="translate(-37.79 120.47) rotate(-28.96)"/><path class="cls-8" d="M209.26,122a12.12,12.12,0,0,1,1.74,4.68,12.12,12.12,0,0,1-1.74-4.68Z"/><path class="cls-8" d="M207.55,112.19a7.31,7.31,0,0,1,.44,2.47,7.33,7.33,0,0,1,.09,2.51,9.34,9.34,0,0,1-.53-5Z"/><path class="cls-8" d="M208.38,102.24a7.29,7.29,0,0,1-.18,2.5,7.29,7.29,0,0,1-.54,2.45,5.46,5.46,0,0,1,0-2.52A5.46,5.46,0,0,1,208.38,102.24Z"/><path class="cls-8" d="M211.64,92.81a7.33,7.33,0,0,1-.8,2.38,7.31,7.31,0,0,1-1.13,2.24,5.44,5.44,0,0,1,.65-2.44A5.43,5.43,0,0,1,211.64,92.81Z"/><path class="cls-8" d="M217.21,84.53c.11.1-.55,1-1.39,2.09s-1.55,1.95-1.67,1.87a5.41,5.41,0,0,1,1.26-2.19C216.26,85.19,217.11,84.43,217.21,84.53Z"/><path class="cls-8" d="M224.72,77.95c.08.12-.78.83-1.87,1.67A7.29,7.29,0,0,1,220.76,81c-.09-.11.67-.95,1.77-1.8A5.46,5.46,0,0,1,224.72,77.95Z"/><path class="cls-8" d="M233.62,73.42a17.3,17.3,0,0,1-4.59,2,9.39,9.39,0,0,1,4.59-2Z"/><ellipse class="cls-8" cx="239.64" cy="71.81" rx="1.25" ry="0.26" transform="translate(-9.05 44.62) rotate(-10.44)"/><path class="cls-6" d="M261.28,42.14s11.75-8.38,28-3c0,0,1.34,13.46-11.7,24.16"/><path class="cls-6" d="M224.25,67c.5.75,13.25,21.24,13.25,21.24l38.27-23.58a13.4,13.4,0,0,0,3.74-19.38h0a13.4,13.4,0,0,0-18.23-3.15Z"/><path class="cls-8" d="M237.5,88.25l-.86,14.42s24.8-12,18.61-25.36Z"/><path class="cls-8" d="M242,55.1s-16.82-7.42-30.66,3.46L224.25,67Z"/><path class="cls-8" d="M241.86,67,217.93,82s.82,2.57,1.47,2.36,18.52-10.8,24.36-14.25a1.8,1.8,0,0,0,.47-2.7h0A1.81,1.81,0,0,0,241.86,67Z"/><circle class="cls-9" cx="263.91" cy="55.67" r="7.66"/><path class="cls-8" d="M271.57,55.67c-.06,0,0-.68-.34-1.85a7.64,7.64,0,0,0-2.8-4.1,7.46,7.46,0,0,0-7.05-1,7.35,7.35,0,0,0-3.44,2.59,7.39,7.39,0,0,0,0,8.76,7.35,7.35,0,0,0,3.44,2.59,7.46,7.46,0,0,0,7.05-1,7.64,7.64,0,0,0,2.8-4.1c.31-1.16.28-1.85.34-1.85a1.74,1.74,0,0,1,0,.49,6.06,6.06,0,0,1-.17,1.4,7.63,7.63,0,0,1-2.77,4.34,7.75,7.75,0,0,1-3.29,1.5,7.87,7.87,0,0,1-4.15-.32,7.79,7.79,0,0,1-3.68-2.74,7.86,7.86,0,0,1,0-9.36,7.79,7.79,0,0,1,3.68-2.74,7.87,7.87,0,0,1,4.15-.32,7.75,7.75,0,0,1,3.29,1.5,7.63,7.63,0,0,1,2.77,4.34,6.06,6.06,0,0,1,.17,1.4A1.74,1.74,0,0,1,271.57,55.67Z"/><path class="cls-8" d="M280.9,60.78c-.1,0-.21-1.49-.8-3.82a29.16,29.16,0,0,0-1.33-4,28.85,28.85,0,0,0-5.56-8.61,29.15,29.15,0,0,0-3.09-2.86c-1.88-1.49-3.2-2.21-3.15-2.3a4.1,4.1,0,0,1,1,.45,10.4,10.4,0,0,1,1.07.63c.4.27.88.55,1.35.93A25.7,25.7,0,0,1,273.56,44a27,27,0,0,1,5.66,8.76,25.7,25.7,0,0,1,1.25,4.09c.15.59.21,1.14.29,1.62a10.42,10.42,0,0,1,.14,1.23A4.1,4.1,0,0,1,280.9,60.78Z"/><path class="cls-8" d="M278.84,61.88c-.1,0-.22-1.51-.82-3.88a30,30,0,0,0-1.35-4.06A29.62,29.62,0,0,0,271,45.15a29.94,29.94,0,0,0-3.13-2.92c-1.9-1.53-3.24-2.28-3.19-2.36a4.23,4.23,0,0,1,1,.47,10.7,10.7,0,0,1,1.08.65c.41.27.89.57,1.37,1a26.43,26.43,0,0,1,3.25,2.89,27.73,27.73,0,0,1,5.73,8.93,26.43,26.43,0,0,1,1.27,4.16c.15.6.22,1.16.3,1.64a10.73,10.73,0,0,1,.14,1.25A4.23,4.23,0,0,1,278.84,61.88Z"/></g><g id="Plant"><path class="cls-6" d="M44.74,379.78c-.86-3.4,1.39-6.8,3.9-9.24s5.51-4.64,6.82-7.89c2.13-5.26-.66-12.11,3-16.49,2.13-2.58,5.92-3.42,7.81-6.18A14.16,14.16,0,0,0,67.94,335a50.22,50.22,0,0,1,12.62-23.3,43.58,43.58,0,0,1-5,22.5c-1.47,2.76-3.27,5.45-3.77,8.53-.81,5,2,10.19.7,15.11-1.44,5.62-7.79,9.36-8.12,15.16-.28,4.9,4,9.23,3.62,14.12a13.23,13.23,0,0,1-2.21,5.8c-3.83,6.28-9.42,10.59-17.86,10.4l-10.34.3Z"/><g class="cls-7"><path d="M44.74,379.78c-.86-3.4,1.39-6.8,3.9-9.24s5.51-4.64,6.82-7.89c2.13-5.26-.66-12.11,3-16.49,2.13-2.58,5.92-3.42,7.81-6.18A14.16,14.16,0,0,0,67.94,335a50.22,50.22,0,0,1,12.62-23.3,43.58,43.58,0,0,1-5,22.5c-1.47,2.76-3.27,5.45-3.77,8.53-.81,5,2,10.19.7,15.11-1.44,5.62-7.79,9.36-8.12,15.16-.28,4.9,4,9.23,3.62,14.12a13.23,13.23,0,0,1-2.21,5.8c-3.83,6.28-9.42,10.59-17.86,10.4l-10.34.3Z"/></g><path class="cls-8" d="M35.46,403.93a8.25,8.25,0,0,1-2.85-.08,17.28,17.28,0,0,1-3.35-.86,14.24,14.24,0,0,1-4.14-2.3,5.79,5.79,0,0,1-1.69-2.28,10.7,10.7,0,0,1-.47-3.09,30,30,0,0,0-.22-3.35,9.22,9.22,0,0,0-1.24-3.33c-1.21-2.15-3.22-4.19-3.86-7.1s-.17-6,.33-9.06,1-6.48-.19-9.71-3.34-6.17-4.45-9.82-.56-7.64-.78-11.55a15.32,15.32,0,0,0-1.31-5.75c-.83-1.83-2-3.57-2.87-5.5-1.81-3.9-2.11-8.32-2.59-12.65l-.7-6.61A32.34,32.34,0,0,0,4,304.28a58.37,58.37,0,0,0-2.44-6.41,21.25,21.25,0,0,1-1.18-3.35A33.59,33.59,0,0,1,0,291a41.9,41.9,0,0,1,.32-7.15c.29-2.38.74-4.75,1-7.14l0-.41.06-.48.42.21a16,16,0,0,1,5.54,4.73A25.33,25.33,0,0,1,10.81,287c1.7,4.45,2.3,9.11,3.14,13.56s1.92,8.82,4.18,12.53c1.12,1.85,2.48,3.54,3.67,5.34a14.62,14.62,0,0,1,2.53,5.91c.59,4.38-1.84,8.2-1.36,12.08a13.41,13.41,0,0,0,1.86,5.38c.93,1.66,2,3.19,3.06,4.74a30.32,30.32,0,0,1,2.75,4.78,15.12,15.12,0,0,1,1.24,5.19c.23,3.49-.28,6.79,0,9.91a22.82,22.82,0,0,0,2.5,8.51c1.24,2.55,2.61,4.86,3.77,7.09a36.27,36.27,0,0,1,1.55,3.3,16.21,16.21,0,0,1,.89,3.27,20.63,20.63,0,0,1,0,5.9,14.87,14.87,0,0,1-3,7.51,7.15,7.15,0,0,1-.84.9,4.11,4.11,0,0,1-.68.57c-.39.28-.59.41-.59.41a13.07,13.07,0,0,0,2-2,15,15,0,0,0,2.85-7.46,20.52,20.52,0,0,0-.1-5.82,16,16,0,0,0-.9-3.2c-.43-1.07-1-2.15-1.56-3.26-1.16-2.22-2.55-4.52-3.82-7.08a23.2,23.2,0,0,1-2.59-8.66c-.25-3.19.25-6.51,0-9.91a14.6,14.6,0,0,0-1.22-5,29.87,29.87,0,0,0-2.72-4.69c-1-1.54-2.14-3.08-3.1-4.77a14,14,0,0,1-1.94-5.6c-.47-4.13,1.94-8,1.34-12a14,14,0,0,0-2.45-5.65c-1.17-1.77-2.54-3.46-3.69-5.35-2.33-3.81-3.44-8.27-4.27-12.73s-1.45-9.08-3.12-13.44a24.7,24.7,0,0,0-3.29-6.15,15.31,15.31,0,0,0-5.3-4.53l.48-.26,0,.42c-.27,2.42-.72,4.78-1,7.14a41.29,41.29,0,0,0-.31,7,33.8,33.8,0,0,0,.3,3.45,20.82,20.82,0,0,0,1.14,3.23,58.78,58.78,0,0,1,2.45,6.48,32.89,32.89,0,0,1,1.13,6.73l.7,6.61c.47,4.35.77,8.69,2.51,12.46.86,1.88,2,3.61,2.86,5.51a15.91,15.91,0,0,1,1.35,6c.2,4-.34,7.89.72,11.43s3.29,6.47,4.41,9.81.68,6.87.16,10-1,6.14-.38,8.89,2.54,4.8,3.77,7a9.57,9.57,0,0,1,1.26,3.46,29.92,29.92,0,0,1,.2,3.39,10.48,10.48,0,0,0,.42,3,5.54,5.54,0,0,0,1.59,2.18,14.18,14.18,0,0,0,4,2.31,17.81,17.81,0,0,0,3.31.92,13.25,13.25,0,0,0,2.1.21C35.21,403.92,35.46,403.93,35.46,403.93Z"/><path class="cls-8" d="M3.49,282a1.21,1.21,0,0,1,.1.31l.22.93c.2.82.43,2,.82,3.58S6,290.06,6.74,292.2s1.65,4.58,2.42,7.35,1.45,5.83,2.17,9.11a38.31,38.31,0,0,0,3.25,10.11c.84,1.68,1.78,3.39,2.53,5.25A24.39,24.39,0,0,1,18.56,330a119.94,119.94,0,0,0,2.16,12.52l5.71,23.92,4.79,19.51,3.17,13.17.83,3.59.2.94a1.21,1.21,0,0,1,0,.32,1.21,1.21,0,0,1-.11-.31l-.26-.92-1-3.56L30.76,386l-4.93-19.47-5.76-23.93a118.25,118.25,0,0,1-2.15-12.57,23.84,23.84,0,0,0-1.4-5.8c-.72-1.82-1.65-3.51-2.49-5.21a38.55,38.55,0,0,1-3.24-10.27c-.69-3.29-1.34-6.35-2.08-9.1s-1.53-5.21-2.31-7.34-1.65-3.89-2-5.48-.54-2.79-.7-3.62l-.16-.94A1.21,1.21,0,0,1,3.49,282Z"/><path class="cls-6" d="M33.64,403.95c-6.73-4.05-8.6-16.24-5.74-23.56s7.83-14,8.63-21.8c.62-6-1.31-12.19.12-18.05,1.93-7.92,9.71-14,9.66-22.16,0-4.57-2.6-8.89-2.37-13.46.29-5.6,4.61-10,7.3-14.94,4.12-7.53,4.44-16.46,5.88-24.92s4.72-17.51,12.25-21.64c1.07,7.2,2.93,12.13,2.28,21.87-.23,3.5-4.34,10.17-4.93,17.84-.36,4.58-.61,9.17-.92,13.75s-.61,9-2.24,13.17c-1.24,3.19-3.23,6.09-4.16,9.39-1.75,6.2.46,12.95-1,19.24-1.2,5.33-4.92,9.9-5.7,15.3-1.1,7.59,3.77,15.52,1.21,22.75-1.27,3.59-4.25,6.46-5.11,10.17-.67,2.88,0,5.93-.58,8.83-1,4.66-9.89,8.23-14.64,7.92"/><path class="cls-8" d="M67.48,250.55a1.86,1.86,0,0,1,0,.41l-.16,1.18c-.16,1-.34,2.56-.71,4.53s-1.42,4.21-2.25,6.89-1.75,5.77-2.53,9.23-1.46,7.29-2.16,11.41-1.46,8.61-3.53,12.9c-1,2.15-2,4.31-2.84,6.6A29.71,29.71,0,0,0,51.79,311a147.27,147.27,0,0,1-2.07,15.72l-6,30-5.16,24.44L35,397.63l-1,4.47-.28,1.16a1.87,1.87,0,0,1-.12.39,1.84,1.84,0,0,1,0-.4l.21-1.17.87-4.5,3.33-16.51,5-24.47,5.95-30a149,149,0,0,0,2.08-15.67,30.26,30.26,0,0,1,1.51-7.43c.84-2.35,1.92-4.51,2.88-6.64,2.06-4.22,2.8-8.64,3.55-12.74s1.42-8,2.24-11.42,1.72-6.57,2.63-9.24,1.94-4.9,2.35-6.83.62-3.47.83-4.5l.22-1.17A1.85,1.85,0,0,1,67.48,250.55Z"/></g><g id="Gears"><path class="cls-8" d="M130.42,275.79a4.78,4.78,0,0,1,1.5.47,6.31,6.31,0,0,1,3,3,6.39,6.39,0,0,1,.61,2.92,6.49,6.49,0,0,1-1,3.27,6.49,6.49,0,0,1-2.87,2.46,6.46,6.46,0,0,1-7.51-1.69,6.49,6.49,0,0,1-1.54-3.45,6.49,6.49,0,0,1,.49-3.39,6.39,6.39,0,0,1,1.8-2.38,6.31,6.31,0,0,1,4-1.46,4.79,4.79,0,0,1,1.55.22s-.55-.11-1.55-.07a6.32,6.32,0,0,0-3.83,1.51,6.19,6.19,0,0,0-2.12,5.53A6.19,6.19,0,0,0,124.4,286a6.14,6.14,0,0,0,7.1,1.59,6.19,6.19,0,0,0,2.73-2.32,6.19,6.19,0,0,0,.44-5.9,6.32,6.32,0,0,0-2.82-3C131,275.92,130.41,275.83,130.42,275.79Z"/><path class="cls-8" d="M135.5,269a1.37,1.37,0,0,1,0-.22l0-.68,0-2.67,0,.06-5.77-1.26.1-.05-1.52,3.23,0,.06h-.07a14.45,14.45,0,0,0-3.76.67l-.07,0-.05-.05-2.54-2.51.16,0-5,3.17.06-.17,1.2,3.36,0,.09-.06.07a14.37,14.37,0,0,0-2.19,3.12l0,.08H112.3l.16-.13L111.17,281l-.09-.19,3.22,1.53.09,0v.1a14.4,14.4,0,0,0,.66,3.75l0,.1-.08.08-2.52,2.53,0-.22,3.16,5-.21-.07,3.36-1.2.1,0,.08.07a14.32,14.32,0,0,0,3.11,2.19h0l.1.16h0v1.76q0,.89,0,1.78l-.14-.18,5.76,1.29-.2.1,1.53-3.22,0-.1h.11a14.31,14.31,0,0,0,3.75-.65l.1,0,.08.08,2.53,2.52-.21,0,5-3.16-.07.2-1.19-3.36,0-.09.07-.07a14.32,14.32,0,0,0,2.2-3.11l0-.08h3.66l-.15.12,1.31-5.76.08.16-3.22-1.54-.07,0v-.08a14.41,14.41,0,0,0-.64-3.76l0-.07.05-.05,2.53-2.52v.13l-3.14-5,.1,0-3.37,1.18h0l0,0a15,15,0,0,0-2.29-1.77l-.61-.37-.2-.12.22.1c.14.07.35.18.63.35a14,14,0,0,1,2.34,1.73h-.06l3.36-1.22.06,0,0,.06,3.18,5,0,.07-.06.06-2.51,2.54,0-.12a14.6,14.6,0,0,1,.68,3.82l-.07-.11,3.23,1.52.1,0,0,.11-1.28,5.77,0,.12h-3.69l.14-.08a14.62,14.62,0,0,1-2.24,3.19l0-.17,1.2,3.36,0,.13-.11.07-5,3.17-.12.07-.1-.1L133,295.92l.18,0a14.64,14.64,0,0,1-3.84.67l.15-.1L128,299.76l-.06.13-.14,0L122,298.56l-.14,0v-3.69h0l.1.16h0a14.67,14.67,0,0,1-3.18-2.24l.18,0-3.36,1.2-.14,0-.08-.12-3.16-5-.08-.12.1-.1,2.52-2.53,0,.18a14.73,14.73,0,0,1-.67-3.84l.1.15-3.22-1.53-.12-.06,0-.13,1.3-5.76,0-.13h3.7l-.14.08a14.63,14.63,0,0,1,2.25-3.18l0,.15-1.19-3.37,0-.11.1-.06,5-3.15.09-.06.07.07,2.52,2.53-.12,0a14.6,14.6,0,0,1,3.83-.65l-.09.06,1.54-3.22,0-.07.07,0,5.76,1.33h0v0c0,1.15,0,2,0,2.65v.68A1.77,1.77,0,0,1,135.5,269Z"/><path class="cls-10" d="M124.62,224.15a16,16,0,0,1,3.48,2.45l3.72-1.32,3.49,5.52-2.78,2.8a16,16,0,0,1,.73,4.19l3.56,1.69-1.43,6.37h-3.94a16,16,0,0,1-2.45,3.48l1.32,3.72-5.52,3.49-2.8-2.78a16,16,0,0,1-4.19.73l-1.69,3.56-6.37-1.43v-3.95a16,16,0,0,1-3.48-2.45l-3.72,1.32L99,246l2.79-2.8a16,16,0,0,1-.73-4.19l-3.56-1.69L99,231h3.94a16,16,0,0,1,2.45-3.48L104,223.77l5.52-3.49,2.8,2.79a16,16,0,0,1,4.19-.73l1.69-3.56,6.37,1.43v3.95Zm-5.62,7.5a7,7,0,1,0,5.3,8.37A7,7,0,0,0,119,231.64Z"/><g class="cls-3"><path class="cls-11" d="M124.62,224.15a16,16,0,0,1,3.48,2.45l3.72-1.32,3.49,5.52-2.78,2.8a16,16,0,0,1,.73,4.19l3.56,1.69-1.43,6.37h-3.94a16,16,0,0,1-2.45,3.48l1.32,3.72-5.52,3.49-2.8-2.78a16,16,0,0,1-4.19.73l-1.69,3.56-6.37-1.43v-3.95a16,16,0,0,1-3.48-2.45l-3.72,1.32L99,246l2.79-2.8a16,16,0,0,1-.73-4.19l-3.56-1.69L99,231h3.94a16,16,0,0,1,2.45-3.48L104,223.77l5.52-3.49,2.8,2.79a16,16,0,0,1,4.19-.73l1.69-3.56,6.37,1.43v3.95Zm-5.62,7.5a7,7,0,1,0,5.3,8.37A7,7,0,0,0,119,231.64Z"/></g><path class="cls-10" d="M101.58,261.68a9.33,9.33,0,0,1,2,1.43l2.16-.77,2,3.21-1.62,1.63a9.32,9.32,0,0,1,.43,2.44l2.07,1-.83,3.71h-2.3a9.29,9.29,0,0,1-1.43,2l.77,2.16-3.21,2-1.63-1.62a9.32,9.32,0,0,1-2.44.42l-1,2.07-3.71-.83v-2.3a9.3,9.3,0,0,1-2-1.43l-2.16.77-2-3.21,1.62-1.63a9.34,9.34,0,0,1-.43-2.44l-2.07-1,.83-3.71h2.3a9.3,9.3,0,0,1,1.43-2l-.77-2.16,3.21-2,1.63,1.62a9.32,9.32,0,0,1,2.44-.43l1-2.07,3.71.83v2.3ZM98.31,266a4.08,4.08,0,1,0,3.09,4.87A4.08,4.08,0,0,0,98.31,266Z"/><g class="cls-12"><path class="cls-11" d="M101.58,261.68a9.33,9.33,0,0,1,2,1.43l2.16-.77,2,3.21-1.62,1.63a9.32,9.32,0,0,1,.43,2.44l2.07,1-.83,3.71h-2.3a9.29,9.29,0,0,1-1.43,2l.77,2.16-3.21,2-1.63-1.62a9.32,9.32,0,0,1-2.44.42l-1,2.07-3.71-.83v-2.3a9.3,9.3,0,0,1-2-1.43l-2.16.77-2-3.21,1.62-1.63a9.34,9.34,0,0,1-.43-2.44l-2.07-1,.83-3.71h2.3a9.3,9.3,0,0,1,1.43-2l-.77-2.16,3.21-2,1.63,1.62a9.32,9.32,0,0,1,2.44-.43l1-2.07,3.71.83v2.3ZM98.31,266a4.08,4.08,0,1,0,3.09,4.87A4.08,4.08,0,0,0,98.31,266Z"/></g></g><g id="Character"><path class="cls-8" d="M322.44,224.88a9.77,9.77,0,0,0,7.06-9.74c-.12-2-.85-3.86-.77-5.82.13-3,2.15-5.61,3.67-8.25s2.54-6.12.77-8.59c-1.15-1.61-3.18-2.33-4.57-3.73s-2-3.27-2.74-5.06-1.67-3.64-3.35-4.59-4.25-.53-4.94,1.28"/><path class="cls-8" d="M304.27,175.55c3-1.9,3.72-6.31,2.1-9.47s-5.07-5.07-8.57-5.64a16.33,16.33,0,0,0-14.07,4.66c-1.93,2-3.5,4.59-6.12,5.5-2.3.8-4.85.08-7.27.39a11,11,0,0,0-7.69,5.54,23.69,23.69,0,0,0-2.73,9.35c-.35,3-.59,6.25-2.65,8.43s-5.2,2.57-7.71,4.08a10.55,10.55,0,0,0-3.13,14.41c1,1.45,2.42,2.78,2.53,4.53.11,1.6-.93,3-1.41,4.55a7.12,7.12,0,0,0,6.09,8.85c2.08.12,4.31-.69,6.17.24s2.54,3.16,3.73,4.85a8.91,8.91,0,0,0,10.86,2.8c1.53-.75,3-2,4.68-1.87s3,1.56,4.7,1.89c2.19.42,4.26-1.19,5.56-3s2.21-3.94,3.87-5.42c2.18-1.94,5.24-2.42,8-3.36a22.55,22.55,0,0,0,12.73-31.59"/><path class="cls-13" d="M310.85,179.48a4.79,4.79,0,0,1,4.27,4.87h0L312.27,249c-.12,7.64-11.28,11.93-19.46,11.74h0c-8.26-.19-8.52-4.24-8.63-11.51-.17-12.14-.16-16.7-.16-16.63s-10.43-1.76-12.56-15.38c-1.06-6.77-.7-17.87-.1-26.95.53-8.17,6-18.18,14.1-17.3Z"/><path class="cls-8" d="M274.34,199.12a1.75,1.75,0,0,0,1.68,1.77,1.67,1.67,0,0,0,1.8-1.57,1.75,1.75,0,0,0-1.68-1.77A1.67,1.67,0,0,0,274.34,199.12Z"/><path class="cls-8" d="M273.74,196.08c.22.23,1.54-.75,3.42-.74s3.25,1,3.46.72-.12-.51-.72-1a4.79,4.79,0,0,0-2.77-.86,4.6,4.6,0,0,0-2.72.87C273.83,195.57,273.64,196,273.74,196.08Z"/><path class="cls-8" d="M293.07,199.12a1.75,1.75,0,0,0,1.68,1.77,1.67,1.67,0,0,0,1.8-1.57,1.75,1.75,0,0,0-1.68-1.77A1.67,1.67,0,0,0,293.07,199.12Z"/><path class="cls-8" d="M292.21,196.47c.22.23,1.54-.75,3.42-.74s3.25,1,3.46.72-.12-.51-.72-1a4.79,4.79,0,0,0-2.77-.86,4.61,4.61,0,0,0-2.72.87C292.3,196,292.11,196.37,292.21,196.47Z"/><path class="cls-8" d="M285.36,210.39a12.44,12.44,0,0,0-3.05-.56c-.48-.05-.93-.15-1-.47a2.44,2.44,0,0,1,.32-1.42l1.43-3.65c2-5.2,3.42-9.47,3.21-9.55s-2,4.07-4,9.27l-1.37,3.67a2.78,2.78,0,0,0-.25,1.88,1.2,1.2,0,0,0,.79.7,3.25,3.25,0,0,0,.81.12A12.21,12.21,0,0,0,285.36,210.39Z"/><path class="cls-14" d="M284,232.63a34.64,34.64,0,0,0,18.24-4.82s-4.62,9.6-18.24,8.3Z"/><path class="cls-6" d="M286.15,214.92a3.38,3.38,0,0,1,3-1.25,3.09,3.09,0,0,1,2.13,1.15,2,2,0,0,1,.14,2.24,2.27,2.27,0,0,1-2.46.62,7.11,7.11,0,0,1-2.4-1.44,2.08,2.08,0,0,1-.54-.56.63.63,0,0,1,0-.7"/><path class="cls-8" d="M290.89,211.71c-.31,0-.31,2-2.06,3.46s-3.92,1.21-3.94,1.5c0,.13.48.4,1.4.42a5.08,5.08,0,0,0,3.29-1.14,4.42,4.42,0,0,0,1.6-2.91C291.25,212.2,291,211.69,290.89,211.71Z"/><path class="cls-8" d="M291.37,193.18c.18.51,2.06.27,4.26.54s4,.88,4.28.42c.13-.22-.18-.7-.9-1.2a7.47,7.47,0,0,0-6.51-.73C291.7,192.54,291.29,192.94,291.37,193.18Z"/><path class="cls-8" d="M274.45,190.65c.33.43,1.63,0,3.18,0s2.87.29,3.18-.15c.13-.22-.07-.64-.65-1a4.61,4.61,0,0,0-5.12.15C274.48,190,274.3,190.44,274.45,190.65Z"/><path class="cls-8" d="M301.91,175.06a13.22,13.22,0,0,1,10.79-2c3.63,1,6.64,4.32,6.77,8,.08,2.41-1,5,.11,7.13s3.52,2.9,5.29,4.4a8.12,8.12,0,0,1,1.88,9.82c-1.49,2.73-4.61,4.73-4.87,7.81-.25,2.9,2.2,5.35,2.79,8.2.66,3.14-1.08,6.4-3.58,8.48s-5.65,3.24-8.73,4.34c-2.4.87-5,1.74-7.47,1.18a7.65,7.65,0,0,1-5.6-6.39,10.41,10.41,0,0,1,2.84-8.22c1.75-1.93,4.2-3.56,4.62-6.1.65-4-4.06-7.21-3.77-11.21.15-2.06,1.6-3.77,2.82-5.47s2.27-3.83,1.52-5.77c-1-2.52-4.27-3.17-6.27-5a6.11,6.11,0,0,1-1.67-6.19,6.3,6.3,0,0,1,4.94-4.21"/><path class="cls-8" d="M303.38,172a9.31,9.31,0,0,1-11,9.2c-2.08-.38-4.36-1.43-6.16-.32s-2,4-3.65,5.48c-2.4,2.08-6.22.13-9.26,1-2.35.7-3.82,2.95-5.39,4.84s-3.9,3.69-6.26,3a27.63,27.63,0,0,1,.93-6.28,9.29,9.29,0,0,1,3.57-5.12,34.38,34.38,0,0,0,3-1.75c2-1.58,2.41-4.32,3.61-6.52a10.21,10.21,0,0,1,7.78-5.16c2.68-.27,5.44.53,8-.13,1.93-.49,3.62-1.74,5.57-2.11,3.81-.72,7.35,2,10.11,4.73"/><path class="cls-15" d="M328.25,204.53a3,3,0,0,0,.3-1.57,4,4,0,0,0-2.74-3.13,20.24,20.24,0,0,0-3-.81,8.76,8.76,0,0,1-3.39-1.4,4.78,4.78,0,0,1-1.76-3.64,38.37,38.37,0,0,1,.21-4.29,9.83,9.83,0,0,0-.11-2.09,4.48,4.48,0,0,0-.8-1.79,6.84,6.84,0,0,0-3.28-1.88,14.73,14.73,0,0,1-3.34-1.44,11.75,11.75,0,0,1-4.86-5.89,8.09,8.09,0,0,1-.35-1.19,1.36,1.36,0,0,1-.06-.43s.18.57.6,1.55a12.14,12.14,0,0,0,2.48,3.7,12.29,12.29,0,0,0,5.69,3.25,7.22,7.22,0,0,1,3.52,2,5,5,0,0,1,.91,2,10.2,10.2,0,0,1,.12,2.22,40.32,40.32,0,0,0-.22,4.23,4.3,4.3,0,0,0,1.55,3.3,8.47,8.47,0,0,0,3.2,1.36,19.54,19.54,0,0,1,3,.89,4.79,4.79,0,0,1,2.11,1.58,3.63,3.63,0,0,1,.69,1.87,2.38,2.38,0,0,1-.25,1.23A.93.93,0,0,1,328.25,204.53Z"/><path class="cls-15" d="M248,213a.85.85,0,0,1-.22-.1,1.5,1.5,0,0,1-.51-.52,2.75,2.75,0,0,1,.28-2.69,3.59,3.59,0,0,1,1.46-1.39,18.76,18.76,0,0,1,2.19-.92,6.75,6.75,0,0,0,2.29-1.3,4.9,4.9,0,0,0,1.31-2.58c.23-1,.3-2.14.48-3.3a7.23,7.23,0,0,1,1.35-3.43c1.59-2.09,4.18-3.2,6.12-5.16a9.43,9.43,0,0,0,2.13-3.61,24.8,24.8,0,0,0,1-4.36c.42-3,.85-6.34,2.86-9.08a6.63,6.63,0,0,1,4.11-2.65,14.39,14.39,0,0,1,4.74.12,17.22,17.22,0,0,0,4.43.26,5.76,5.76,0,0,0,3.62-1.87c1.86-2,2.93-4.7,5.21-6.08a8.71,8.71,0,0,1,6.88-.95,7.63,7.63,0,0,1,4.53,3.52,8.57,8.57,0,0,1,1.18,4.2,7.37,7.37,0,0,1-.44,2.72,4.58,4.58,0,0,1-.4.87s.12-.31.3-.91a7.74,7.74,0,0,0,.33-2.68,8.48,8.48,0,0,0-1.22-4.06,7.34,7.34,0,0,0-4.38-3.31,8.34,8.34,0,0,0-6.55,1,9.58,9.58,0,0,0-2.63,2.71,30.26,30.26,0,0,1-2.47,3.34,6.78,6.78,0,0,1-1.74,1.36,6.45,6.45,0,0,1-2.16.67,17.57,17.57,0,0,1-4.56-.25,14,14,0,0,0-4.57-.12,6.11,6.11,0,0,0-3.79,2.46,12.61,12.61,0,0,0-1.95,4.27,42,42,0,0,0-.82,4.57,25.11,25.11,0,0,1-1,4.45,9.89,9.89,0,0,1-2.25,3.78c-2.05,2-4.63,3.12-6.12,5.08a6.83,6.83,0,0,0-1.3,3.24c-.19,1.13-.27,2.26-.52,3.32a5.23,5.23,0,0,1-1.44,2.74,7,7,0,0,1-2.41,1.33,19.19,19.19,0,0,0-2.18.87,3.4,3.4,0,0,0-1.4,1.28,2.67,2.67,0,0,0-.36,2.53A2.19,2.19,0,0,0,248,213Z"/><path class="cls-6" d="M214.64,306.77l24.15-2.21s14.86-39.15,33.18-48.64l11.87,20.73-25.41,47.74H208.83Z"/><path class="cls-7" d="M214.64,306.77l24.15-2.21s14.86-39.15,33.18-48.64l11.87,20.73-25.41,47.74H208.83Z"/><ellipse class="cls-9" cx="226.44" cy="314.04" rx="4.4" ry="0.26" transform="translate(-159.3 347.25) rotate(-59.13)"/><ellipse class="cls-9" cx="238.54" cy="313.93" rx="0.26" ry="4.39" transform="translate(-144.06 218.71) rotate(-38.79)"/><ellipse class="cls-9" cx="244.26" cy="305.2" rx="0.26" ry="3.17"/><ellipse class="cls-9" cx="233.6" cy="320.95" rx="0.26" ry="2.59" transform="translate(-162.87 340.83) rotate(-56.82)"/><ellipse class="cls-9" cx="247.72" cy="290.64" rx="4.66" ry="0.26" transform="translate(-118.79 397.89) rotate(-65.87)"/><ellipse class="cls-9" cx="257.33" cy="272.1" rx="2.62" ry="0.26" transform="translate(-112.11 210.66) rotate(-37.16)"/><path class="cls-6" d="M295.54,321.28,308,271a17.11,17.11,0,0,1,19.65-12.73h0a17.11,17.11,0,0,1,13.88,19.46l-7.63,49.17a24.6,24.6,0,0,1-20.41,19.9l-9.9,1.54Z"/><path class="cls-8" d="M334.8,255a11.26,11.26,0,0,0-4.44-2.23,11.85,11.85,0,0,0-5.36,0,14.54,14.54,0,0,0-5.83,3c-3.65,3.06-5.64,7-7,9.82-.67,1.41-1.18,2.58-1.54,3.38a7,7,0,0,1-.61,1.22,6.78,6.78,0,0,1,.42-1.3c.31-.82.76-2,1.39-3.45a37.46,37.46,0,0,1,2.56-4.91,21.84,21.84,0,0,1,4.43-5.16,14.65,14.65,0,0,1,6.05-3.11,11.85,11.85,0,0,1,5.56.07,9.46,9.46,0,0,1,3.37,1.63,6.39,6.39,0,0,1,.76.68C334.73,254.89,334.81,255,334.8,255Z"/><path class="cls-8" d="M264.23,266.32a2.46,2.46,0,0,1-.35.47l-1.07,1.28c-.92,1.11-2.24,2.73-3.74,4.83a51.41,51.41,0,0,0-8.5,18.05c-1.74,7.67-1.82,14.85-2.12,20-.12,2.58-.25,4.67-.36,6.11l-.15,1.66a2.45,2.45,0,0,1-.09.58,2.45,2.45,0,0,1,0-.58l0-1.66.19-6.11c.2-5.14.22-12.35,2-20.1a49.7,49.7,0,0,1,8.71-18.15c1.55-2.08,2.91-3.67,3.88-4.74.48-.54.88-.94,1.14-1.21A2.44,2.44,0,0,1,264.23,266.32Z"/><path class="cls-6" d="M344.05,266.21c-1.37-9-6.34-11.16-11.48-14-1.68-.92-9.79-3-16.22-4.57-.61-3.9-1.71-10.87-2-12.34-.34-2.07-32.76,3.1-33.17,3.88-.27.51-1,8.59-1.49,14L272,255.91l-10.13,12.88-5.27,7.49A40.33,40.33,0,0,0,250,290.65a78.43,78.43,0,0,0-1.45,17.42l-1.57,33,67.83,19.18,5.25-33.45L337.6,303C339.09,293.37,345.73,277.27,344.05,266.21Z"/><path class="cls-8" d="M286.17,254.24a10.41,10.41,0,0,1-.45-2.29c-.21-1.42-.47-3.39-.72-5.57l-.34-3.08a21.63,21.63,0,0,1-.18-2.54,3.06,3.06,0,0,1,.48-1.69c.26-.34.49-.43.5-.41s-.15.18-.33.52a3.25,3.25,0,0,0-.29,1.59c0,.69.17,1.54.29,2.49l.38,3.07c.25,2.18.45,4.16.57,5.59A10.42,10.42,0,0,1,286.17,254.24Z"/><path class="cls-8" d="M294.81,252.19a7.82,7.82,0,0,1-.72-2.1,33.59,33.59,0,0,1-1-10.62,7.82,7.82,0,0,1,.33-2.19c.16,0-.13,3.38.26,7.5S295,252.15,294.81,252.19Z"/><path class="cls-8" d="M310.91,249.86a25.49,25.49,0,0,0-2.52-14.55,6.72,6.72,0,0,1,1.19,1.88,18.95,18.95,0,0,1,1.82,10.49A6.73,6.73,0,0,1,310.91,249.86Z"/><path class="cls-9" d="M264.85,279.27a31.16,31.16,0,0,1,5.95-7.93,32.08,32.08,0,0,1-2.87,4A32.07,32.07,0,0,1,264.85,279.27Z"/><ellipse class="cls-9" cx="277.64" cy="263.59" rx="0.26" ry="4.1" transform="translate(-103.01 222.77) rotate(-37.39)"/><path class="cls-9" d="M296.1,259a121,121,0,0,1-6.5,6.33,23.85,23.85,0,0,1,6.5-6.33Z"/><ellipse class="cls-9" cx="289.29" cy="247.42" rx="0.26" ry="3.13" transform="translate(-88.29 295.74) rotate(-47.83)"/><ellipse class="cls-9" cx="302.18" cy="242.79" rx="3.5" ry="0.26" transform="translate(-44.14 68.67) rotate(-12.09)"/><ellipse class="cls-9" cx="308.22" cy="260.7" rx="0.26" ry="3.5" transform="translate(-12.77 15.89) rotate(-2.89)"/><ellipse class="cls-9" cx="301.79" cy="270.72" rx="0.26" ry="4.4" transform="translate(-74.47 119.74) rotate(-20.03)"/><ellipse class="cls-9" cx="287.76" cy="278.04" rx="0.26" ry="4.64" transform="translate(-81.16 123.1) rotate(-21.23)"/><ellipse class="cls-9" cx="275.53" cy="286.63" rx="0.26" ry="4.33" transform="translate(-51.89 61.09) rotate(-11.57)"/><ellipse class="cls-9" cx="259.04" cy="287.4" rx="0.26" ry="4.25" transform="translate(-99.7 142.47) rotate(-25.97)"/><ellipse class="cls-9" cx="256.39" cy="303.21" rx="4.66" ry="0.26" transform="translate(-107.77 144.9) rotate(-26.29)"/><path class="cls-9" d="M260.76,316.87a17.89,17.89,0,0,1-2-7.5,79.47,79.47,0,0,1,2,7.5Z"/><ellipse class="cls-9" cx="254.47" cy="325.08" rx="0.26" ry="4.19" transform="translate(-157.15 293.34) rotate(-47.54)"/><path class="cls-9" d="M278,320.38c0,.15-2.26.81-4.94,2s-4.73,2.41-4.81,2.28a21.09,21.09,0,0,1,9.75-4.27Z"/><ellipse class="cls-9" cx="270.78" cy="311.39" rx="0.26" ry="3.72" transform="translate(-87.37 106.41) rotate(-19.21)"/><ellipse class="cls-9" cx="281.16" cy="306.08" rx="5.55" ry="0.26" transform="translate(-127.69 380.73) rotate(-57.78)"/><path class="cls-9" d="M297.13,302.68a30.84,30.84,0,0,1-5.77-9.61c.14-.06,1.3,2.16,2.89,4.8S297.25,302.59,297.13,302.68Z"/><path class="cls-9" d="M304.92,289.84a15.35,15.35,0,0,1-7.66.38,25.16,25.16,0,0,1,3.83-.22A25.18,25.18,0,0,1,304.92,289.84Z"/><ellipse class="cls-9" cx="318.42" cy="277.6" rx="5.55" ry="0.26" transform="translate(-88.44 163.95) rotate(-25.48)"/><ellipse class="cls-9" cx="326.65" cy="261.9" rx="4.47" ry="0.26" transform="translate(-53.08 438.23) rotate(-63.63)"/><path class="cls-9" d="M336.43,273.2a32.74,32.74,0,0,1-1.52-4.55,32.75,32.75,0,0,1-1.34-4.6,27,27,0,0,1,2.86,9.15Z"/><path class="cls-9" d="M338.27,282.88a23.5,23.5,0,0,1-9,2.31,34.16,34.16,0,0,1,4.49-1.21A34.16,34.16,0,0,1,338.27,282.88Z"/><path class="cls-9" d="M318.12,294.71c-.15,0,.28-2.46.4-5.49s-.08-5.49.07-5.51a22.45,22.45,0,0,1-.47,11Z"/><path class="cls-9" d="M314.1,306.87a24.65,24.65,0,0,1-6.5-7.83c.13-.08,1.45,1.77,3.24,3.92S314.2,306.76,314.1,306.87Z"/><ellipse class="cls-9" cx="330.04" cy="306.09" rx="4.63" ry="0.26" transform="translate(-92.47 150.82) rotate(-22.67)"/><ellipse class="cls-9" cx="327.12" cy="321.7" rx="5.5" ry="0.26" transform="translate(2.15 645.57) rotate(-89.42)"/><path class="cls-9" d="M311.55,325.89a31.89,31.89,0,0,1,2.77-11.06c.14.05-.62,2.48-1.38,5.53S311.7,325.91,311.55,325.89Z"/><path class="cls-9" d="M312.27,331.9c0,.15-2.49.39-5.52.9s-5.48,1.07-5.52.93a29.4,29.4,0,0,1,11-1.82Z"/><ellipse class="cls-9" cx="298.26" cy="324.78" rx="4.54" ry="0.26" transform="translate(-142.56 313.68) rotate(-45.99)"/><path class="cls-9" d="M284,338.86a36.31,36.31,0,0,1-1.35-3.91,36.31,36.31,0,0,1-1.4-3.9,16,16,0,0,1,2.75,7.81Z"/><ellipse class="cls-9" cx="297.02" cy="342.86" rx="0.26" ry="5.37" transform="translate(-136.86 475.24) rotate(-66.06)"/><ellipse class="cls-9" cx="271.85" cy="339.65" rx="3.77" ry="0.26" transform="translate(-136.17 490.59) rotate(-71.63)"/><path class="cls-9" d="M291.26,346.71c0,.15-2.87-.31-6.41-.49s-6.41,0-6.42-.19a31.18,31.18,0,0,1,12.83.68Z"/><path class="cls-8" d="M295.54,317.22a1.21,1.21,0,0,1,0-.39,3.7,3.7,0,0,1,.16-1.13,2.51,2.51,0,0,1,1.09-1.49,3.49,3.49,0,0,1,2.44-.4l-.2.12c1.1-3.83,2.84-9.44,4.59-15.72,1.64-5.88,2.74-11.29,3.52-15.22l.92-4.65a11.14,11.14,0,0,1,.4-1.7,11.1,11.1,0,0,1-.2,1.73c-.16,1.11-.41,2.71-.75,4.68-.68,3.94-1.74,9.39-3.38,15.29-1.75,6.3-3.57,11.88-4.76,15.68l0,.15-.16,0a3.24,3.24,0,0,0-2.22.3,2.34,2.34,0,0,0-1,1.31A14,14,0,0,0,295.54,317.22Z"/><path class="cls-8" d="M318,331.13c-.09,0-.7-1.31-2-3.33a34.38,34.38,0,0,0-13.6-12.36c-2.13-1.07-3.54-1.56-3.51-1.65a4,4,0,0,1,1,.27,22.48,22.48,0,0,1,2.65,1,31.16,31.16,0,0,1,13.76,12.5,22.49,22.49,0,0,1,1.3,2.54A4,4,0,0,1,318,331.13Z"/><g class="cls-16"><path d="M299.45,313.05A35.16,35.16,0,0,1,310,315c3.59,1.35,6.91,3.92,8.23,7.52a2.48,2.48,0,0,1-.19,2.6,1.85,1.85,0,0,1-1.89.31,5,5,0,0,1-1.66-1.14c-2.2-2-4.49-3.84-6.77-5.8s-5.58-4-8.55-4.47"/></g><path class="cls-8" d="M292.24,306.67a4.64,4.64,0,0,1-1,.6,18.24,18.24,0,0,1-3.08,1.16A20.55,20.55,0,0,1,268,303.21a18.23,18.23,0,0,1-2.12-2.51,4.65,4.65,0,0,1-.62-1c.08-.06,1,1.41,3,3.28A21.19,21.19,0,0,0,288,308.08C290.69,307.42,292.2,306.58,292.24,306.67Z"/><g class="cls-16"><path d="M265.79,300.44c1.68,3.66,3.66,7.35,6.85,9.8a11,11,0,0,0,6.32,2.65c3.34.05,6.2-2.22,8.75-4.38-8.25,1.29-17.55-2.45-21.92-8.07"/></g><path class="cls-8" d="M302.76,251.43c-.16,0,0-3.43-.38-7.62s-1.23-7.52-1.07-7.56a8.25,8.25,0,0,1,.69,2.15,38.46,38.46,0,0,1,1,10.8A8.25,8.25,0,0,1,302.76,251.43Z"/><path class="cls-6" d="M184.14,385.25s-10.87,2.35-20.57.89c-9.1-1.36-29.47,0-29.46,12,0,13.37,27.17,10.07,37.77,7.95s21.15-4,21.15-4Z"/><ellipse class="cls-8" cx="158.69" cy="397.67" rx="0.26" ry="4.83" transform="translate(-83.33 44.47) rotate(-12.67)"/><ellipse class="cls-8" cx="162.79" cy="397.75" rx="0.26" ry="4.85" transform="translate(-52.55 25.82) rotate(-7.81)"/><ellipse class="cls-8" cx="166.53" cy="396.96" rx="0.26" ry="4.23" transform="translate(-46.34 22.8) rotate(-6.88)"/><path class="cls-8" d="M172.66,399.76a14.38,14.38,0,0,1-1.8-7.4,1043.81,1043.81,0,0,1,1.8,7.4Z"/><path class="cls-8" d="M173.86,394.87a4.68,4.68,0,0,1,1.42-.09,12,12,0,0,1,3.82.75,4.27,4.27,0,0,1,1.18.63,1.78,1.78,0,0,1,.74,1.32,2,2,0,0,1-2.46,1.79,5.06,5.06,0,0,1-2.84-2,8.64,8.64,0,0,1-1.61-3.34,8.5,8.5,0,0,1,1.2-6.92,1.38,1.38,0,0,1,.81-.49,1.09,1.09,0,0,1,.9.28,2.43,2.43,0,0,1,.68,1.46,7.41,7.41,0,0,1-.14,2.72,7.56,7.56,0,0,1-1.83,3.43,5.92,5.92,0,0,1-.79.7c-.2.14-.31.2-.32.19s.38-.34,1-1a7.82,7.82,0,0,0,1.63-3.38,7.2,7.2,0,0,0,.08-2.58,2,2,0,0,0-.56-1.18.7.7,0,0,0-1,.18,8.48,8.48,0,0,0,.45,9.64,4.65,4.65,0,0,0,2.52,1.86,1.57,1.57,0,0,0,1.94-1.31,1.38,1.38,0,0,0-.56-1,4,4,0,0,0-1.05-.6,13.26,13.26,0,0,0-3.7-.89C174.37,394.9,173.86,394.91,173.86,394.87Z"/><path class="cls-8" d="M192,400.32l-.27.09-.82.2-3.15.72c-2.74.6-6.72,1.45-11.66,2.4s-10.84,2-17.46,2.93a47.17,47.17,0,0,1-10.49.52,22.57,22.57,0,0,1-5.49-1.05A15.15,15.15,0,0,1,140,405a8.16,8.16,0,0,1-2.32-1.87l0,0a5.52,5.52,0,0,1-.95-1.13,7.07,7.07,0,0,1-.55-5.85,9.35,9.35,0,0,1,3.48-4.55,17.67,17.67,0,0,1,5-2.45c.87-.25,1.71-.54,2.57-.74s1.71-.4,2.56-.52c6.81-1.08,13-.53,18.15-.53,2.58,0,4.91,0,7-.15a46.45,46.45,0,0,0,5.2-.66l1.87-.39,1.35-.38.83-.23.29-.06-.27.11-.82.28-1.34.43-1.87.44a43.7,43.7,0,0,1-5.22.75c-2.05.15-4.39.25-7,.23-5.16,0-11.35-.46-18.07.63-.84.12-1.67.35-2.52.52s-1.67.49-2.53.73A17.23,17.23,0,0,0,140,392a8.86,8.86,0,0,0-3.29,4.3,6.57,6.57,0,0,0,.5,5.42,5,5,0,0,0,.85,1l0,0,0,0a7.8,7.8,0,0,0,2.15,1.71,14.68,14.68,0,0,0,2.54,1.13,22.16,22.16,0,0,0,5.37,1,47.11,47.11,0,0,0,10.39-.49c6.6-.87,12.51-1.92,17.45-2.82s8.93-1.7,11.68-2.24l3.17-.62.83-.15Z"/><path class="cls-8" d="M152.21,406.76a17.84,17.84,0,0,1-.26-2.78c-.12-1.71-.33-4.08-.67-6.67s-.77-4.93-1.11-6.62a17.83,17.83,0,0,1-.48-2.75,12.74,12.74,0,0,1,.84,2.67A61.17,61.17,0,0,1,152.31,404,12.73,12.73,0,0,1,152.21,406.76Z"/><polygon class="cls-12" points="180.8 385.83 187.68 403.08 193.03 402.09 182.79 385.25 180.8 385.83"/><path class="cls-8" d="M270.55,338.55c-1.11.37-72.28-19.58-101.07-27.67a27.34,27.34,0,0,0-22.26,3.37l-.35.22a27.34,27.34,0,0,0-11.77,29.15h0a27.33,27.33,0,0,0,12.34,17.11c19,11.63,59.15,36.09,60.38,35.62,1.61-.62,51.78-1.92,51.78-1.92L199.26,351,228,369.58l42.59-31Z"/><path class="cls-13" d="M211.13,316.89l15.13-7.83,14.84,9.3,55.55,1.81,8,27-80.4-18.64s-14.63,1.29-15.73-2S211.13,316.89,211.13,316.89Z"/><path class="cls-8" d="M256.64,360.23l-7.48,24.56.93,7.48h0a38.43,38.43,0,0,0,50.68,3.42h0a37.66,37.66,0,0,0,14.72-30L315.38,340Z"/><ellipse class="cls-15" cx="192.88" cy="346.05" rx="0.26" ry="23.99" transform="translate(-199.83 293.77) rotate(-53.28)"/><ellipse class="cls-14" cx="217.76" cy="316.36" rx="7.85" ry="0.26" transform="translate(-86.14 81.53) rotate(-17.77)"/><path class="cls-14" d="M226.37,318.58a15.74,15.74,0,0,1-2.58.48c-1.59.26-3.79.65-6.18,1.2s-4.54,1.16-6.09,1.62a15.73,15.73,0,0,1-2.53.69,11.27,11.27,0,0,1,2.41-1,54.38,54.38,0,0,1,12.34-2.84A11.28,11.28,0,0,1,226.37,318.58Z"/><ellipse class="cls-14" cx="216.72" cy="324.47" rx="8.55" ry="0.26" transform="translate(-58.97 48.35) rotate(-11.21)"/><path class="cls-15" d="M205.48,280.61l14,45.92a1.33,1.33,0,0,0,1.17.94l38,2.85a1.33,1.33,0,0,1,1.23,1.33V334a1.33,1.33,0,0,1-1.36,1.33l-104-2a1.33,1.33,0,0,1-1.22-.86l-18.28-47.9a1.33,1.33,0,0,1,1.18-1.8l67.91-3.18A1.33,1.33,0,0,1,205.48,280.61Z"/><path class="cls-1" d="M176.18,300.4a3.28,3.28,0,0,0-2.06,2.34,3.15,3.15,0,0,0,1.34,2.86,3.42,3.42,0,0,0,3.8.14,3.17,3.17,0,0,0,1-3.84c-.46-1.27-2.78-2.15-4.12-1.5"/><path class="cls-8" d="M193,402.09,182,384l80.8-63.33a32.47,32.47,0,0,1,17.65-7.23h0a32.47,32.47,0,0,1,35.3,35l-1.29,15.45-53.63,17.23Z"/><path class="cls-15" d="M296.65,359.17a1.21,1.21,0,0,1-.21.2l-.66.54L293.2,362l-1.87,1.48c-.68.54-1.49,1-2.32,1.63l-2.68,1.84c-.48.32-1,.67-1.47,1l-1.6,1c-2.2,1.31-4.57,2.81-7.25,4.17-1.33.7-2.69,1.46-4.13,2.17l-4.47,2.12c-6.15,2.8-13,5.62-20.43,8.14-14.76,5.09-28.4,8.75-38.18,11.71-2.45.72-4.66,1.4-6.59,2s-3.61,1.11-5,1.57l-3.13,1-.82.25-.28.07.27-.12.8-.3,3.1-1.11c1.34-.49,3-1,4.94-1.66s4.13-1.34,6.57-2.08c9.75-3.05,23.38-6.77,38.11-11.85,7.37-2.51,14.25-5.31,20.4-8.08l4.46-2.09c1.44-.7,2.79-1.45,4.13-2.14,2.69-1.34,5.06-2.81,7.26-4.1l1.61-.95c.51-.32,1-.66,1.48-1l2.7-1.8c.84-.57,1.65-1.06,2.33-1.59l1.89-1.44,2.63-2,.69-.5A1.24,1.24,0,0,1,296.65,359.17Z"/><path class="cls-15" d="M298.61,367.63a3.14,3.14,0,0,1-.82.43c-.54.25-1.33.57-2.32.94a59.06,59.06,0,0,1-16.09,3.46c-1.05.07-1.91.1-2.5.1a3.14,3.14,0,0,1-.92-.05,30.89,30.89,0,0,1,3.38-.41c2.09-.23,5-.64,8.09-1.31s5.91-1.49,7.91-2.13A30.89,30.89,0,0,1,298.61,367.63Z"/><ellipse class="cls-15" cx="220.82" cy="353.87" rx="49.12" ry="0.26" transform="translate(-170.69 209.98) rotate(-37.86)"/><path class="cls-6" d="M254.94,390.93c-3.88-2.07-8.23-.85-11.94.4-2.47.83-5,2.15-7.54,1.44-1.81-.51-3.16-2-4.55-3.26A28.57,28.57,0,0,0,210,382a8.51,8.51,0,0,0-5.74,2.59c-3.81,4.12-.94,9.49,2.47,13a37.59,37.59,0,0,0,22.71,11c7.09.74,16.84-.24,24-3.32,4.43-1.9,6.71-7.13,4.38-11.35A7.28,7.28,0,0,0,254.94,390.93Z"/><g class="cls-12"><path d="M254.93,394.23c-3.88-2.07-8.23-.85-11.94.4-2.47.83-5,2.15-7.54,1.44-1.81-.51-3.16-2-4.55-3.26A28.57,28.57,0,0,0,210,385.34a8.51,8.51,0,0,0-5.74,2.59,6.61,6.61,0,0,0-1.6,2.89,15.07,15.07,0,0,0,4.06,6.77,37.59,37.59,0,0,0,22.71,11c7.09.74,16.84-.24,24-3.32a8.77,8.77,0,0,0,5.11-6.09,7.42,7.42,0,0,0-.73-2A7.28,7.28,0,0,0,254.93,394.23Z"/></g><path class="cls-8" d="M258.6,399.13a6.71,6.71,0,0,0-.95-2.3,7.51,7.51,0,0,0-2.07-2,8.29,8.29,0,0,0-3.56-1.36c-2.88-.34-6.21.87-9.92,1.88-1.83.48-3.83,1.23-6,1a8,8,0,0,1-3.1-1.07,19.31,19.31,0,0,1-2.66-2,29,29,0,0,0-15.87-7.52,16.62,16.62,0,0,0-4.69,0,10.24,10.24,0,0,0-3.63,1.27,9.24,9.24,0,0,0-2.22,1.88,22.56,22.56,0,0,0-1.43,2.07,8,8,0,0,1,1.27-2.19,9.1,9.1,0,0,1,2.23-2,10.37,10.37,0,0,1,3.72-1.38,16.71,16.71,0,0,1,4.8,0,27.65,27.65,0,0,1,5.37,1.2,31.07,31.07,0,0,1,5.56,2.46,23.13,23.13,0,0,1,2.71,1.76c.86.68,1.68,1.42,2.52,2.14a19,19,0,0,0,2.59,2,7.49,7.49,0,0,0,2.9,1c2,.27,4-.43,5.83-.91,3.69-1,7.08-2.17,10.09-1.78a8.34,8.34,0,0,1,5.76,3.65,5.39,5.39,0,0,1,.72,1.75A2.46,2.46,0,0,1,258.6,399.13Z"/><path class="cls-8" d="M258.6,399.13a6.71,6.71,0,0,0-.95-2.3,7.51,7.51,0,0,0-2.07-2,8.29,8.29,0,0,0-3.56-1.36c-2.88-.34-6.21.87-9.92,1.88-1.83.48-3.83,1.23-6,1a8,8,0,0,1-3.1-1.07,19.31,19.31,0,0,1-2.66-2,29,29,0,0,0-15.87-7.52,16.62,16.62,0,0,0-4.69,0,10.24,10.24,0,0,0-3.63,1.27,9.24,9.24,0,0,0-2.22,1.88,22.56,22.56,0,0,0-1.43,2.07,8,8,0,0,1,1.27-2.19,9.1,9.1,0,0,1,2.23-2,10.37,10.37,0,0,1,3.72-1.38,16.71,16.71,0,0,1,4.8,0,27.65,27.65,0,0,1,5.37,1.2,31.07,31.07,0,0,1,5.56,2.46,23.13,23.13,0,0,1,2.71,1.76c.86.68,1.68,1.42,2.52,2.14a19,19,0,0,0,2.59,2,7.49,7.49,0,0,0,2.9,1c2,.27,4-.43,5.83-.91,3.69-1,7.08-2.17,10.09-1.78a8.34,8.34,0,0,1,5.76,3.65,5.39,5.39,0,0,1,.72,1.75A2.46,2.46,0,0,1,258.6,399.13Z"/><path class="cls-8" d="M210.53,398.2a9.89,9.89,0,0,1,2-1.37A57.2,57.2,0,0,1,223,391.88a9.88,9.88,0,0,1,2.32-.65,12.67,12.67,0,0,1-2.19,1c-1.37.57-3.25,1.37-5.3,2.33s-3.86,1.9-5.18,2.59A12.68,12.68,0,0,1,210.53,398.2Z"/><ellipse class="cls-8" cx="219.55" cy="398.36" rx="8.53" ry="0.26" transform="translate(-151.5 135.28) rotate(-25.8)"/><ellipse class="cls-8" cx="218.84" cy="398.03" rx="0.26" ry="10.74" transform="translate(-234.58 371.01) rotate(-57.79)"/><path class="cls-8" d="M230.25,399.73a12.32,12.32,0,0,1-2-1.35c-1.22-.88-2.89-2.09-4.77-3.39s-3.6-2.45-4.85-3.28a12.31,12.31,0,0,1-2-1.42,10.46,10.46,0,0,1,2.17,1.11c1.3.75,3.06,1.85,4.95,3.16s3.53,2.57,4.69,3.52A10.46,10.46,0,0,1,230.25,399.73Z"/></g></g></svg>